<?xml version="1.0" standalone="no"?>
<!DOCTYPE svg PUBLIC "-//W3C//DTD SVG 1.1//EN" "http://www.w3.org/Graphics/SVG/1.1/DTD/svg11.dtd">
<svg version="1.1" xmlns="http://www.w3.org/2000/svg" viewBox="9 9 71 71" width="128" height="128"><!-- svg-source:excalidraw --><metadata></metadata><defs><style class="style-fonts">
      </style></defs><g stroke-linecap="round" transform="translate(10 10) rotate(0 34.079247174586726 34.079247174586726)"><path d="M17.04 0 C23.89 3.32, 31.5 -0.5, 51.12 0 C59.1 -2.32, 68.8 7.78, 68.16 17.04 C65.89 24.99, 71.63 36.6, 68.16 51.12 C65.41 59.18, 61.06 66.13, 51.12 68.16 C37.13 71.13, 24.65 67.73, 17.04 68.16 C3.12 66.35, -0.41 61.56, 0 51.12 C-2.78 42.47, 2.3 36.49, 0 17.04 C-0.64 4.87, 9.18 2.03, 17.04 0" stroke="none" stroke-width="0" fill="#fdf7f1"></path><path d="M17.04 0 C27.85 -0.82, 40.24 0.4, 51.12 0 M17.04 0 C24.04 0.48, 31.45 -0.37, 51.12 0 M51.12 0 C63.82 0.92, 68.26 3.78, 68.16 17.04 M51.12 0 C64.66 2.24, 68.24 7.83, 68.16 17.04 M68.16 17.04 C67.91 26.47, 68.51 39.72, 68.16 51.12 M68.16 17.04 C67.52 27.64, 67.23 38.66, 68.16 51.12 M68.16 51.12 C66.28 61.88, 64.16 68.16, 51.12 68.16 M68.16 51.12 C67.81 61.95, 62.56 67.6, 51.12 68.16 M51.12 68.16 C41 67.97, 27.98 67.06, 17.04 68.16 M51.12 68.16 C37.8 67.61, 25.31 68.29, 17.04 68.16 M17.04 68.16 C6.06 68.18, -0.02 61.44, 0 51.12 M17.04 68.16 C4.69 66.95, -2.06 64.49, 0 51.12 M0 51.12 C-1.42 39.07, -0.14 28.07, 0 17.04 M0 51.12 C-0.58 40.14, -1.21 28.67, 0 17.04 M0 17.04 C-1.88 3.94, 4.42 1.89, 17.04 0 M0 17.04 C-1.94 5.62, 5.17 -1.68, 17.04 0" stroke="transparent" stroke-width="4" fill="none"></path></g><g transform="translate(24.327611424751176 38.65522284950248) rotate(0 20.570356402678474 14.532291587961936)" stroke="none"><path fill="#1e1e1e" d="M -2.8,-1.71 Q -2.8,-1.71 -2.77,-0.27 -2.74,-0.54 -2.66,-0.80 -2.58,-1.07 -2.45,-1.31 -2.32,-1.55 -2.15,-1.76 -1.97,-1.97 -1.76,-2.15 -1.55,-2.32 -1.31,-2.45 -1.07,-2.58 -0.80,-2.66 -0.54,-2.74 -0.27,-2.77 3.42,-2.8 0.27,-2.77 0.54,-2.74 0.80,-2.66 1.07,-2.58 1.31,-2.45 1.55,-2.32 1.76,-2.15 1.97,-1.97 2.15,-1.76 2.32,-1.55 2.45,-1.31 2.58,-1.07 2.66,-0.80 2.74,-0.54 2.77,-0.27 2.8,1.71 2.79,-0.03 2.79,-0.06 2.83,0.26 2.87,0.58 2.99,1.30 3.11,2.03 3.32,3.11 3.53,4.19 3.80,5.49 4.07,6.79 4.22,7.79 4.36,8.78 4.58,12.86 4.81,16.95 4.97,19.31 5.13,21.68 5.21,22.94 5.29,24.20 5.38,25.04 5.47,25.87 5.51,26.49 5.56,27.10 5.59,27.51 5.61,27.93 5.62,28.19 5.64,28.46 5.64,28.65 5.65,28.84 5.65,28.99 5.65,29.15 5.66,29.28 5.66,29.41 5.66,29.58 5.66,29.75 5.66,29.99 5.66,30.22 5.66,30.50 5.66,30.77 5.66,31.06 5.66,31.35 5.66,31.54 5.66,31.74 5.66,31.94 5.66,32.14 5.66,32.39 5.66,32.65 5.66,32.93 5.66,33.21 5.66,33.45 5.66,33.69 5.66,33.92 5.66,34.14 5.61,33.91 5.55,33.69 5.11,33.05 4.68,32.41 4.01,32.16 3.35,31.91 3.41,31.85 3.47,31.79 4.26,31.68 5.04,31.58 6.09,31.48 7.14,31.38 8.42,31.28 9.69,31.18 11.30,31.02 12.92,30.87 14.72,30.74 16.52,30.61 18.52,30.50 20.51,30.38 22.54,30.32 24.58,30.26 26.26,30.24 27.94,30.21 29.34,30.19 30.75,30.18 32.01,30.17 33.28,30.16 34.27,30.16 35.26,30.16 35.98,30.21 36.71,30.26 37.08,30.28 37.45,30.31 37.67,30.32 37.88,30.33 38.13,30.34 38.38,30.34 38.61,30.34 38.84,30.35 39.26,30.35 39.68,30.35 39.94,30.35 40.20,30.35 40.39,30.35 40.57,30.35 40.28,30.42 40.00,30.49 39.21,31.20 38.43,31.92 38.37,32.80 38.30,33.68 38.18,33.52 38.06,33.36 37.68,32.57 37.31,31.78 36.99,30.74 36.66,29.69 36.52,28.61 36.37,27.53 36.21,26.50 36.04,25.46 35.86,24.27 35.67,23.08 35.47,21.85 35.28,20.62 35.12,19.44 34.97,18.26 34.79,16.97 34.61,15.68 34.52,14.37 34.42,13.06 34.38,11.88 34.33,10.70 34.27,9.72 34.20,8.75 34.07,7.86 33.94,6.98 33.82,6.18 33.70,5.37 33.60,4.81 33.50,4.25 33.39,3.77 33.28,3.30 33.21,2.89 33.15,2.49 33.11,2.20 33.08,1.92 33.06,1.65 33.04,1.38 33.04,1.20 33.03,1.01 33.02,0.80 33.02,0.60 33.02,0.40 33.02,0.19 33.02,0.05 33.02,-0.09 32.98,-0.37 32.93,-0.64 32.90,-1.04 32.87,-1.44 32.86,-1.66 32.86,-1.87 32.81,-2.09 32.76,-2.31 32.71,-2.70 32.67,-3.09 32.65,-3.39 32.64,-3.68 32.63,-3.93 32.62,-4.19 32.62,-4.47 32.61,-4.76 32.63,-5.27 32.66,-5.78 32.74,-6.04 32.81,-6.31 32.94,-6.55 33.07,-6.79 33.24,-7.01 33.41,-7.22 33.62,-7.40 33.83,-7.57 34.08,-7.70 34.32,-7.83 34.58,-7.92 34.84,-8.00 35.11,-8.03 35.39,-8.06 35.66,-8.03 35.93,-8.01 36.20,-7.93 36.46,-7.85 36.70,-7.72 36.95,-7.60 37.16,-7.42 37.37,-7.25 37.55,-7.04 37.72,-6.83 37.86,-6.59 37.99,-6.35 38.07,-6.09 38.15,-5.82 38.18,-5.55 38.21,-5.28 38.18,-5.00 38.16,-4.73 38.08,-4.47 38.00,-4.20 37.88,-3.96 37.75,-3.72 37.58,-3.50 37.40,-3.29 37.19,-3.12 36.98,-2.94 36.74,-2.81 36.50,-2.68 36.24,-2.60 35.98,-2.51 35.70,-2.48 35.43,-2.46 35.16,-2.48 34.88,-2.51 34.62,-2.58 34.36,-2.66 34.11,-2.79 33.87,-2.92 33.66,-3.09 33.44,-3.26 33.27,-3.47 33.09,-3.68 32.96,-3.92 32.83,-4.16 32.75,-4.43 32.67,-4.69 32.64,-4.96 32.61,-5.23 32.63,-5.51 32.66,-5.78 32.74,-6.04 32.81,-6.31 32.94,-6.55 33.07,-6.79 33.24,-7.01 33.41,-7.22 33.62,-7.40 33.83,-7.57 34.08,-7.70 34.32,-7.83 34.58,-7.92 34.84,-8.00 35.11,-8.03 35.39,-8.06 35.66,-8.03 35.93,-8.01 36.20,-7.93 36.46,-7.85 36.70,-7.72 36.95,-7.60 37.16,-7.42 37.37,-7.25 37.55,-7.04 37.72,-6.83 37.86,-6.59 37.99,-6.35 38.07,-6.09 38.15,-5.82 38.18,-5.55 38.21,-5.28 38.21,-5.05 38.21,-4.82 38.22,-4.57 38.22,-4.32 38.22,-4.13 38.23,-3.93 38.24,-3.74 38.25,-3.54 38.27,-3.37 38.28,-3.20 38.35,-2.90 38.41,-2.60 38.43,-2.19 38.46,-1.78 38.47,-1.54 38.49,-1.30 38.55,-0.92 38.61,-0.54 38.61,-0.18 38.62,0.16 38.62,0.34 38.62,0.52 38.62,0.68 38.63,0.84 38.63,0.96 38.64,1.09 38.65,1.24 38.66,1.40 38.67,1.55 38.69,1.70 38.73,1.96 38.78,2.22 38.88,2.67 38.98,3.12 39.11,3.80 39.23,4.47 39.35,5.32 39.48,6.16 39.62,7.15 39.77,8.14 39.85,9.27 39.93,10.40 39.97,11.58 40.01,12.76 40.10,13.93 40.18,15.09 40.35,16.30 40.52,17.51 40.67,18.67 40.82,19.82 41.01,21.01 41.20,22.20 41.39,23.40 41.57,24.59 41.74,25.66 41.91,26.73 42.02,27.61 42.14,28.49 42.33,29.12 42.52,29.74 42.77,30.24 43.02,30.75 43.32,31.33 43.62,31.91 43.59,33.05 43.55,34.18 42.63,35.00 41.70,35.82 41.13,35.89 40.56,35.95 40.37,35.95 40.19,35.95 39.92,35.95 39.66,35.95 39.22,35.95 38.79,35.95 38.54,35.94 38.28,35.94 37.98,35.93 37.68,35.93 37.40,35.91 37.13,35.90 36.73,35.87 36.32,35.85 35.70,35.80 35.07,35.75 34.19,35.76 33.30,35.76 32.05,35.77 30.79,35.78 29.40,35.79 28.01,35.81 26.36,35.83 24.70,35.86 22.73,35.92 20.75,35.98 18.82,36.09 16.89,36.20 15.13,36.33 13.38,36.45 11.78,36.60 10.17,36.76 8.90,36.86 7.63,36.96 6.65,37.05 5.67,37.14 5.06,37.22 4.45,37.30 3.77,37.40 3.09,37.51 2.17,37.17 1.25,36.84 0.71,36.04 0.17,35.24 0.12,34.69 0.06,34.14 0.06,33.92 0.06,33.69 0.06,33.45 0.06,33.21 0.06,32.93 0.06,32.65 0.06,32.39 0.06,32.14 0.06,31.94 0.06,31.74 0.06,31.54 0.06,31.35 0.06,31.06 0.06,30.77 0.06,30.50 0.06,30.23 0.06,30.00 0.06,29.77 0.06,29.61 0.06,29.46 0.06,29.35 0.06,29.24 0.05,29.11 0.05,28.99 0.04,28.83 0.04,28.68 0.03,28.45 0.02,28.22 0.00,27.85 -0.01,27.48 -0.06,26.94 -0.10,26.39 -0.19,25.53 -0.28,24.67 -0.37,23.36 -0.45,22.04 -0.61,19.66 -0.77,17.29 -0.99,13.31 -1.20,9.34 -1.32,8.55 -1.43,7.77 -1.69,6.53 -1.95,5.29 -2.17,4.16 -2.39,3.02 -2.53,2.19 -2.67,1.36 -2.73,0.81 -2.79,0.26 -2.79,0.13 -2.8,-1.71 -2.8,-1.71 L -2.8,-1.71 Z"></path></g><g transform="translate(18.596566854850707 43.77222692977057) rotate(0 25.175660074919925 -15.351012240804721)" stroke="none"><path fill="#1e1e1e" d="M 2.8,1.71 Q 2.8,1.71 2.77,0.27 2.74,0.54 2.66,0.80 2.58,1.07 2.45,1.31 2.32,1.55 2.15,1.76 1.97,1.97 1.76,2.15 1.55,2.32 1.31,2.45 1.07,2.58 0.80,2.66 0.54,2.74 0.27,2.77 -3.42,2.8 -0.27,2.77 -0.54,2.74 -0.80,2.66 -1.07,2.58 -1.31,2.45 -1.55,2.32 -1.76,2.15 -1.97,1.97 -2.15,1.76 -2.32,1.55 -2.45,1.31 -2.58,1.07 -2.66,0.80 -2.74,0.54 -2.77,0.27 -2.8,-1.71 -2.59,-0.78 -2.38,-1.57 -2.14,-1.83 -1.90,-2.10 -2.04,-1.97 -2.18,-1.85 -1.90,-2.27 -1.63,-2.70 -1.26,-3.16 -0.90,-3.63 -0.43,-4.30 0.04,-4.97 0.63,-5.76 1.21,-6.55 1.80,-7.44 2.39,-8.33 3.06,-9.30 3.72,-10.27 4.34,-11.19 4.96,-12.11 5.54,-13.04 6.11,-13.98 6.71,-14.85 7.30,-15.73 7.84,-16.60 8.38,-17.48 8.90,-18.32 9.42,-19.15 9.83,-19.87 10.23,-20.58 10.64,-21.29 11.04,-22.01 11.41,-22.69 11.78,-23.37 12.19,-24.06 12.60,-24.74 12.99,-25.35 13.38,-25.97 13.72,-26.57 14.06,-27.17 14.40,-27.75 14.74,-28.34 14.96,-28.69 15.18,-29.05 15.36,-29.45 15.54,-29.84 15.74,-30.12 15.95,-30.39 15.91,-30.32 15.88,-30.26 15.94,-30.43 16.00,-30.60 16.20,-30.93 16.40,-31.26 16.56,-31.47 16.72,-31.67 16.71,-31.64 16.70,-31.61 16.60,-31.40 16.49,-31.18 16.65,-31.57 16.81,-31.97 17.94,-32.68 19.08,-33.38 19.94,-33.17 20.81,-32.96 21.07,-32.84 21.34,-32.73 21.87,-32.38 22.40,-32.03 22.92,-31.62 23.44,-31.22 24.11,-30.71 24.78,-30.20 25.54,-29.57 26.31,-28.95 27.01,-28.36 27.71,-27.77 28.56,-27.14 29.40,-26.50 30.17,-25.80 30.93,-25.10 31.60,-24.51 32.27,-23.92 32.88,-23.35 33.49,-22.78 34.08,-22.20 34.67,-21.63 35.15,-21.11 35.62,-20.59 36.06,-20.08 36.51,-19.56 36.91,-19.08 37.31,-18.59 37.71,-18.15 38.11,-17.70 38.59,-17.15 39.07,-16.59 39.49,-16.08 39.91,-15.58 40.43,-15.02 40.94,-14.47 41.45,-13.88 41.97,-13.29 42.53,-12.69 43.10,-12.09 43.61,-11.51 44.13,-10.92 44.72,-10.35 45.31,-9.78 45.81,-9.18 46.30,-8.59 46.71,-8.19 47.12,-7.79 47.59,-7.32 48.05,-6.85 48.39,-6.46 48.73,-6.08 48.97,-5.81 49.22,-5.54 49.44,-5.35 49.66,-5.16 50.02,-4.87 50.38,-4.59 50.63,-4.32 50.89,-4.05 51.01,-3.97 51.13,-3.88 51.31,-3.72 51.50,-3.57 51.49,-3.56 51.48,-3.55 51.65,-3.45 51.83,-3.35 52.03,-3.16 52.23,-2.97 52.39,-2.75 52.55,-2.53 52.66,-2.28 52.77,-2.03 52.84,-1.76 52.90,-1.49 52.91,-1.22 52.92,-0.94 52.87,-0.67 52.83,-0.40 52.73,-0.14 52.63,0.10 52.49,0.34 52.34,0.57 52.15,0.77 51.97,0.97 51.74,1.13 51.52,1.29 51.27,1.40 51.02,1.51 50.75,1.58 50.48,1.64 50.21,1.65 49.94,1.65 49.66,1.61 49.39,1.56 49.14,1.47 48.88,1.37 48.65,1.23 48.41,1.08 48.21,0.89 48.01,0.70 47.86,0.48 47.70,0.26 47.58,0.01 47.47,-0.23 47.41,-0.50 47.35,-0.77 47.34,-1.04 47.33,-1.32 47.37,-1.59 47.42,-1.86 47.52,-2.11 47.61,-2.37 47.76,-2.60 47.90,-2.84 48.09,-3.04 48.28,-3.24 48.50,-3.40 48.73,-3.56 48.98,-3.67 49.23,-3.78 49.49,-3.84 49.76,-3.91 50.03,-3.91 50.31,-3.92 50.58,-3.88 50.85,-3.83 51.11,-3.74 51.36,-3.64 51.60,-3.49 51.83,-3.35 52.03,-3.16 52.23,-2.97 52.39,-2.75 52.55,-2.53 52.66,-2.28 52.77,-2.03 52.84,-1.76 52.90,-1.49 52.91,-1.22 52.92,-0.94 52.87,-0.67 52.83,-0.40 52.73,-0.14 52.63,0.10 52.49,0.34 52.34,0.57 52.15,0.77 51.97,0.97 51.74,1.13 51.52,1.29 51.27,1.40 51.02,1.51 50.75,1.58 50.48,1.64 50.21,1.65 49.94,1.65 49.66,1.61 49.39,1.56 49.14,1.47 48.88,1.37 48.60,1.22 48.32,1.06 48.06,0.85 47.81,0.63 47.71,0.55 47.62,0.47 47.38,0.29 47.14,0.10 46.88,-0.17 46.62,-0.44 46.36,-0.64 46.11,-0.83 45.71,-1.18 45.31,-1.53 44.93,-1.94 44.55,-2.34 44.26,-2.69 43.96,-3.04 43.57,-3.43 43.17,-3.81 42.68,-4.31 42.18,-4.80 41.70,-5.38 41.21,-5.96 40.64,-6.51 40.08,-7.06 39.52,-7.69 38.96,-8.32 38.39,-8.92 37.82,-9.53 37.30,-10.13 36.78,-10.72 36.24,-11.30 35.70,-11.89 35.25,-12.43 34.80,-12.97 34.36,-13.48 33.92,-13.99 33.49,-14.46 33.07,-14.93 32.64,-15.44 32.22,-15.96 31.82,-16.42 31.42,-16.89 31.04,-17.31 30.66,-17.73 30.15,-18.22 29.64,-18.71 29.07,-19.24 28.51,-19.77 27.84,-20.36 27.18,-20.94 26.50,-21.57 25.83,-22.19 25.03,-22.78 24.23,-23.38 23.48,-24.01 22.73,-24.64 22.02,-25.23 21.31,-25.81 20.67,-26.30 20.03,-26.78 19.57,-27.14 19.11,-27.50 18.90,-27.65 18.70,-27.79 18.53,-27.86 18.36,-27.92 18.95,-27.86 19.55,-27.80 20.56,-28.41 21.57,-29.01 21.68,-29.20 21.79,-29.39 21.59,-28.96 21.39,-28.54 21.19,-28.30 20.99,-28.05 20.98,-28.04 20.97,-28.03 21.02,-28.13 21.07,-28.23 21.05,-28.14 21.03,-28.05 20.82,-27.67 20.62,-27.30 20.49,-27.14 20.35,-26.99 20.26,-26.75 20.17,-26.50 19.86,-25.99 19.55,-25.47 19.23,-24.92 18.91,-24.38 18.55,-23.73 18.18,-23.09 17.78,-22.45 17.37,-21.80 17.01,-21.20 16.65,-20.60 16.30,-19.95 15.94,-19.29 15.52,-18.55 15.10,-17.81 14.66,-17.05 14.23,-16.29 13.69,-15.41 13.14,-14.53 12.57,-13.61 12.01,-12.69 11.41,-11.81 10.82,-10.94 10.24,-10.00 9.67,-9.07 9.01,-8.10 8.36,-7.13 7.70,-6.16 7.04,-5.20 6.42,-4.26 5.79,-3.33 5.18,-2.51 4.57,-1.69 4.08,-0.99 3.59,-0.29 3.25,0.14 2.90,0.57 2.80,0.72 2.69,0.88 2.40,1.33 2.11,1.79 2.24,1.58 2.38,1.36 2.59,0.68 2.8,1.71 2.8,1.71 L 2.8,1.71 Z"></path></g><g transform="translate(40.08798399197747 70.17596798395516) rotate(0 5.424024325084375 -10.029327997325709)" stroke="none"><path fill="#1e1e1e" d="M 2.8,1.71 Q 2.8,1.71 2.77,0.27 2.74,0.54 2.66,0.80 2.58,1.07 2.45,1.31 2.32,1.55 2.15,1.76 1.97,1.97 1.76,2.15 1.55,2.32 1.31,2.45 1.07,2.58 0.80,2.66 0.54,2.74 0.27,2.77 -3.42,2.8 -0.27,2.77 -0.54,2.74 -0.80,2.66 -1.07,2.58 -1.31,2.45 -1.55,2.32 -1.76,2.15 -1.97,1.97 -2.15,1.76 -2.32,1.55 -2.45,1.31 -2.58,1.07 -2.66,0.80 -2.74,0.54 -2.77,0.27 -2.8,-1.71 -2.8,-0.05 -2.8,-0.10 -2.79,-0.09 -2.78,-0.09 -2.82,-0.24 -2.85,-0.39 -2.94,-0.90 -3.03,-1.42 -3.07,-1.93 -3.11,-2.43 -3.17,-2.89 -3.23,-3.34 -3.37,-3.99 -3.51,-4.64 -3.59,-5.42 -3.67,-6.21 -3.71,-6.90 -3.75,-7.60 -3.76,-8.21 -3.78,-8.82 -3.84,-9.53 -3.90,-10.25 -3.93,-11.01 -3.96,-11.77 -3.98,-12.51 -3.99,-13.25 -4.00,-14.03 -4.01,-14.81 -4.01,-15.50 -4.01,-16.18 -4.06,-16.72 -4.11,-17.26 -4.14,-17.73 -4.17,-18.21 -4.17,-18.43 -4.18,-18.64 -4.25,-19.05 -4.32,-19.46 -4.05,-20.42 -3.77,-21.38 -3.07,-21.94 -2.37,-22.49 -1.94,-22.62 -1.52,-22.74 -0.84,-22.78 -0.17,-22.81 0.38,-22.70 0.94,-22.58 1.54,-22.49 2.14,-22.39 2.85,-22.24 3.56,-22.09 4.37,-21.97 5.17,-21.85 6.11,-21.74 7.04,-21.63 7.89,-21.52 8.74,-21.42 9.40,-21.37 10.05,-21.32 10.48,-21.29 10.91,-21.27 11.17,-21.25 11.42,-21.24 11.92,-21.20 12.42,-21.16 13.27,-20.68 14.12,-20.19 14.51,-19.36 14.90,-18.53 14.95,-17.98 15.01,-17.44 15.03,-17.01 15.04,-16.58 15.10,-15.91 15.16,-15.24 15.19,-14.50 15.22,-13.75 15.24,-12.97 15.25,-12.19 15.26,-11.45 15.27,-10.70 15.27,-10.07 15.27,-9.44 15.27,-8.87 15.28,-8.30 15.28,-7.86 15.28,-7.42 15.28,-6.85 15.28,-6.27 15.28,-5.93 15.28,-5.59 15.28,-5.21 15.28,-4.84 15.28,-4.60 15.28,-4.36 15.28,-4.19 15.28,-4.02 15.28,-3.88 15.28,-3.75 15.28,-3.63 15.28,-3.51 15.25,-3.12 15.23,-2.74 15.15,-2.48 15.07,-2.22 14.94,-1.97 14.81,-1.73 14.63,-1.52 14.46,-1.31 14.25,-1.13 14.04,-0.96 13.79,-0.83 13.55,-0.70 13.29,-0.62 13.03,-0.54 12.75,-0.51 12.48,-0.49 12.21,-0.51 11.93,-0.54 11.67,-0.62 11.41,-0.70 11.17,-0.83 10.92,-0.96 10.71,-1.13 10.50,-1.31 10.33,-1.52 10.15,-1.73 10.02,-1.97 9.89,-2.22 9.81,-2.48 9.73,-2.74 9.71,-3.01 9.68,-3.29 9.71,-3.56 9.73,-3.83 9.81,-4.10 9.89,-4.36 10.02,-4.60 10.15,-4.84 10.33,-5.05 10.50,-5.27 10.71,-5.44 10.92,-5.61 11.17,-5.74 11.41,-5.87 11.67,-5.95 11.93,-6.03 12.21,-6.06 12.48,-6.09 12.75,-6.06 13.03,-6.03 13.29,-5.95 13.55,-5.87 13.79,-5.74 14.04,-5.62 14.25,-5.44 14.46,-5.27 14.63,-5.05 14.81,-4.84 14.94,-4.60 15.07,-4.36 15.15,-4.10 15.23,-3.83 15.25,-3.56 15.28,-3.29 15.25,-3.01 15.23,-2.74 15.15,-2.48 15.07,-2.22 14.94,-1.97 14.81,-1.73 14.63,-1.52 14.46,-1.31 14.25,-1.13 14.04,-0.96 13.79,-0.83 13.55,-0.70 13.29,-0.62 13.03,-0.54 12.75,-0.51 12.48,-0.49 12.21,-0.51 11.93,-0.54 11.67,-0.62 11.41,-0.70 11.17,-0.83 10.92,-0.96 10.71,-1.13 10.50,-1.31 10.33,-1.52 10.15,-1.73 10.02,-1.97 9.89,-2.22 9.81,-2.48 9.73,-2.74 9.71,-3.01 9.68,-3.29 9.68,-3.40 9.68,-3.51 9.68,-3.63 9.68,-3.75 9.68,-3.88 9.68,-4.02 9.68,-4.19 9.68,-4.36 9.68,-4.60 9.68,-4.84 9.68,-5.21 9.68,-5.59 9.68,-5.92 9.68,-6.26 9.68,-6.84 9.68,-7.42 9.68,-7.85 9.68,-8.29 9.68,-8.85 9.67,-9.42 9.67,-10.04 9.67,-10.66 9.66,-11.38 9.65,-12.11 9.64,-12.85 9.62,-13.58 9.60,-14.23 9.57,-14.88 9.51,-15.56 9.45,-16.24 9.44,-16.67 9.42,-17.10 9.42,-17.24 9.41,-17.39 9.68,-16.92 9.95,-16.45 10.56,-16.07 11.16,-15.70 11.18,-15.67 11.21,-15.65 10.91,-15.66 10.61,-15.67 10.14,-15.70 9.67,-15.73 8.92,-15.79 8.18,-15.85 7.27,-15.96 6.36,-16.07 5.40,-16.19 4.43,-16.30 3.50,-16.44 2.57,-16.58 1.85,-16.73 1.12,-16.88 0.49,-16.98 -0.12,-17.08 -0.39,-17.16 -0.65,-17.23 -0.60,-17.23 -0.54,-17.23 -0.33,-17.29 -0.13,-17.36 0.34,-17.78 0.82,-18.20 1.05,-18.89 1.27,-19.59 1.32,-19.48 1.37,-19.36 1.39,-18.92 1.41,-18.49 1.44,-18.09 1.46,-17.68 1.52,-17.07 1.57,-16.45 1.58,-15.65 1.58,-14.85 1.59,-14.10 1.60,-13.34 1.61,-12.64 1.63,-11.95 1.65,-11.27 1.68,-10.59 1.74,-9.86 1.80,-9.12 1.82,-8.48 1.84,-7.83 1.87,-7.23 1.90,-6.64 1.96,-6.08 2.01,-5.52 2.15,-4.91 2.28,-4.29 2.36,-3.66 2.45,-3.02 2.48,-2.57 2.52,-2.13 2.58,-1.76 2.65,-1.39 2.71,-1.00 2.78,-0.62 2.79,-0.36 2.8,-0.10 2.8,-0.05 2.8,1.71 2.8,1.71 L 2.8,1.71 Z"></path></g></svg>