<svg xmlns="http://www.w3.org/2000/svg" width="120.1" height="61.3" viewBox="0 0 112.6 57.5"><path fill="none" stroke="#3c3c3c" stroke-linecap="round" stroke-linejoin="round" stroke-width="3" d="M15.5 2h16.7c5 .2 12.7 1 19.1.7 4.3.5 8.6-.3 13 .3 6.1 0 12.3-1 18.4-.7 5.9.4 10.1.5 17.6.4 7.4-.5 10.7 0 10.2 7.3q-.3 9-.1 16c0 8.7 1.3 25-.6 27.6-3 3.8-10 1-14.3 1.2-4-.2-9.6 1-13.5 0-5-.7-8.3.7-13.2.3-5 0-9.7-.8-14.5.3a64 64 0 0 1-19.2-.5c-5.9-.9-10 0-15.9-.1-4.7 0-15 1.8-16.6 0S2.2 43 2.2 39.1c-.4-9.2-.5-15.6.1-24.8.1-1.6-1.1-8.4 0-10.2C4.7.5 11.6 2.5 15.5 2"/></svg>