<svg xmlns="http://www.w3.org/2000/svg" width="96.8" height="128.9" viewBox="0 0 90.7 120.9"><g fill="none" stroke="#3c3c3c" stroke-linecap="round" stroke-linejoin="round" stroke-width="3"><path d="M60.8 1.5q-2.7.9-5.5 1a35 35 0 0 0-9 1.7q-1.1.5-3.8 2.7-2.6 2.1-3.7 3.5-1.2 1.5-2.2 4-1 2.7-1.3 4.7a16 16 0 0 0 1 8 20 20 0 0 0 3 4.6q2.5 3 4 3.9t2.9 2l2.6 2a22 22 0 0 0 8.2 2.8 41 41 0 0 0 9.7.4 45 45 0 0 0 12.2-4.3q2.3-1.5 3.8-1.9l2-.7.8-1.2a42 42 0 0 0 3.7-10v-3.2q-.2-1.6-.8-2.7a30 30 0 0 0-4.7-6.9 31 31 0 0 0-9.5-6 52 52 0 0 0-13.6-4.2q-1.5 0-3 .6m-12.7 20 .5 5.7m13.5-1.7.2 5.2m-19.8 4.8q-.6.2-1.3 1.8-.9 1.5-2.9 3.7a58 58 0 0 1-11.6 9.8 108 108 0 0 1-10.1 6l-5 1.8q-3.3 1-4.9 2.2a7 7 0 0 0-1.8 1.6q-.2.4-.1 1.5a6 6 0 0 0 1 2.8q0 .3.8.3.6.2 4-.4a72 72 0 0 0 10.8-2.8q.8-.3 2.8-1.6t3.6-2 3.5-1.7a84 84 0 0 0 9.8-6.8q1.1-1.5.6-.7-.5.6-2.3 1.6m30.3 5.1q.8 17.1 1.7 25 .9 8 1.3 15.5a188 188 0 0 0 1.5 17q0 1.8-.3 2.3t-.8.8-2.7.3q-2 0-2.5-.2l-.5-.7-.8-2.9q-.6-2.3-1.1-5.8-.5-3.6-1.1-6-.7-2.5-.8-7.3 0-5-.4-6.6-.3-1.7-1.2-2-1-.2-6.5.2-5.5.6-7.4 0l-2.3-.7q-.5-.3-.4-.7m27.7-42.6q1.5 1.5 4.1 5.8t6 12.4A189 189 0 0 1 84.5 74q1.2 3.8 1.5 5.7t.5 4-.7 2.5q-.7.6-1.2.5t-1.9-.7-3-2.7-2.3-3.4q-.4-1.5-1.3-2.2-.7-.6-3.9-6.4-3-5.8-3.6-7.8-.5-2.1-1.6-3.9"/><path d="M39 51.7a181 181 0 0 0-3.1 15.4q-1 6.6-2.1 10.2l-2.2 8.6q-1.1 5-2.5 9.3a76 76 0 0 0-3.8 17.1l-.6 5.5q0 .7.4 1t2.5.1 2.8-.8l1.3-1.3 1.5-3.2q1-2.4 2.1-6.6a109 109 0 0 1 4.4-13 67 67 0 0 0 2.8-8.2"/><path d="M35.4 74.3q.2.6.8.8t1.5.8q.7.6 3.4 1.3 2.7.6 11.8.7 9 0 11-.4 1.8-.4 3.1-1.6"/></g></svg>