<svg xmlns="http://www.w3.org/2000/svg" width="512" height="512" viewBox="0 0 512 512"><g transform="translate(0 -540.4)"><rect width="512" height="512" y="540.4" fill="#fdf7f1" fill-opacity=".9" rx="64" ry="64"/><path fill="none" stroke="#3c3c3c" stroke-linecap="round" stroke-linejoin="round" stroke-width="37.8" d="M194.8 748.5a732 732 0 0 1 27-80.1q12.6-30 22.9-44.8a51 51 0 0 1 22.2-19.6q12-4.7 15.8.4 3.8 5.3 8.4 18.5 4.5 13.4 6 47.4 1.5 34.2 8.2 55.3t10.5 22.6 10.5-.1a121 121 0 0 1 27.3-.7q20.6 1 34 7t39.1 10.9a174 174 0 0 1 30.7 7.2 10 10 0 0 1 5.8 7.5q1 5-.7 7-1.5 2.2-22.6 9.1-21.2 7-42 21-21 14.2-32.7 25.9a235 235 0 0 1-26.1 22.4q-14.4 10.8.9 29.1a164 164 0 0 1 24.8 40.3 119 119 0 0 1 10.5 38q1 16.2-2.6 23.8-3.7 7.7-15.6 4.4-12-3.2-23-14.4a91 91 0 0 0-29.8-18.9 76 76 0 0 1-32-25.8q-13.5-18-21.6-25.3-8.1-7.2-14.2-3.5a113 113 0 0 0-18.7 16.3 293 293 0 0 0-23.2 26.3q-10.5 13.5-16.8 15t-18 10a45 45 0 0 1-16.1 9.3q-4.6.6-8.1-2a34 34 0 0 1-8.2-10.5q-4.7-8-3.7-14 1-5.7 12.5-29.2a295 295 0 0 1 23.9-40.8q12.3-17.2 12.5-23.1t-5.8-13-24.9-13.7a315 315 0 0 1-54-28q-35.1-21.3-34.2-27.3 1-6 5.5-13.5T76 761.5q12-5.9 117.7-6.5"/></g></svg>