<svg xmlns="http://www.w3.org/2000/svg" width="477.8" height="467.3" viewBox="0 0 447.9 438.1"><path fill="none" stroke="#3c3c3c" stroke-linecap="round" stroke-linejoin="round" stroke-width="37.8" d="M160.1 165.8a732 732 0 0 1 27-80.2q12.6-30 22.8-44.8a51 51 0 0 1 22.3-19.6q12-4.8 15.8.5 3.8 5.1 8.3 18.4t6 47.5 8.3 55.2q6.6 21 10.5 22.6 3.8 1.5 10.5 0a121 121 0 0 1 27.3-.7q20.5 1 34 7t39 10.8a174 174 0 0 1 30.8 7.2 10 10 0 0 1 5.8 7.5q.9 5-.7 7.1-1.5 2.1-22.7 9-21 7.1-42 21.1t-32.7 25.8a235 235 0 0 1-26 22.5q-14.4 10.7.9 29A164 164 0 0 1 330 352a119 119 0 0 1 10.6 38.1q1 16.2-2.7 23.8-3.6 7.5-15.6 4.4-11.9-3.3-23-14.5a91 91 0 0 0-29.8-18.8 76 76 0 0 1-32-25.9q-13.4-18-21.5-25.2t-14.3-3.6a113 113 0 0 0-18.6 16.3 293 293 0 0 0-23.2 26.3q-10.5 13.6-16.9 15-6.2 1.4-17.9 10.1a45 45 0 0 1-16.2 9.2q-4.5.5-8-1.9a34 34 0 0 1-8.2-10.6q-4.8-8-3.7-13.9 1-5.7 12.5-29.2a295 295 0 0 1 23.8-40.8q12.3-17.4 12.6-23.2.2-6-5.8-13t-25-13.7a315 315 0 0 1-54-28q-35-21.3-34-27.2.8-6 5.4-13.5 4.5-7.6 16.7-13.5 12.2-5.8 117.8-6.4"/></svg>