<?xml version="1.0" standalone="no"?>
<!DOCTYPE svg PUBLIC "-//W3C//DTD SVG 1.1//EN" "http://www.w3.org/Graphics/SVG/1.1/DTD/svg11.dtd">
<svg version="1.1" xmlns="http://www.w3.org/2000/svg" viewBox="0 0 362.00000000000006 190" width="362.00000000000006" height="190"><!-- svg-source:excalidraw --><metadata></metadata><defs><style class="style-fonts">
      </style></defs><g transform="translate(190 28) rotate(0 -23.49999999999997 65)" stroke="none"><path fill="transparent" d="M 0.88,-2.65 Q 0.88,-2.65 1.13,-2.54 1.38,-2.43 1.61,-2.27 1.83,-2.11 2.02,-1.91 2.21,-1.71 2.35,-1.48 2.50,-1.25 2.60,-0.99 2.70,-0.73 2.74,-0.46 2.79,-0.19 2.78,0.07 2.77,0.35 2.71,0.61 2.65,0.88 2.54,1.13 2.43,1.38 2.27,1.61 2.11,1.83 1.91,2.02 1.71,2.21 1.48,2.35 1.25,2.50 0.99,2.60 0.73,2.70 0.46,2.74 0.19,2.79 -0.07,2.78 -0.35,2.77 -0.61,2.71 -0.88,2.65 -3.84,1.66 -6.79,0.68 -11.35,-0.52 -15.91,-1.73 -30.83,-2.34 -45.75,-2.95 -56.74,-2.51 -67.73,-2.07 -79.70,-1.36 -91.67,-0.65 -100.03,0.43 -108.40,1.52 -113.52,2.93 -118.64,4.34 -122.27,7.57 -125.89,10.80 -128.45,14.52 -131.00,18.25 -133.29,24.56 -135.59,30.86 -137.49,37.25 -139.39,43.63 -140.84,51.74 -142.28,59.84 -142.75,66.10 -143.23,72.35 -143.23,76.30 -143.23,80.26 -142.32,83.75 -141.42,87.24 -139.55,90.41 -137.68,93.58 -135.34,96.60 -132.99,99.62 -129.68,102.31 -126.37,105.00 -121.76,107.84 -117.15,110.68 -111.63,113.35 -106.11,116.01 -100.41,118.32 -94.71,120.63 -88.91,122.28 -83.11,123.93 -76.24,125.50 -69.37,127.07 -61.21,128.35 -53.06,129.63 -44.01,130.77 -34.96,131.91 -26.21,132.48 -17.47,133.05 -9.16,133.34 -0.85,133.62 7.69,133.03 16.24,132.43 24.44,130.90 32.65,129.38 40.40,127.15 48.16,124.93 55.14,121.65 62.11,118.38 68.01,113.84 73.91,109.31 78.78,104.15 83.65,99.00 87.03,93.32 90.41,87.64 92.34,82.40 94.27,77.17 95.23,72.22 96.19,67.27 95.95,62.90 95.71,58.54 95.14,55.25 94.57,51.95 93.58,49.85 92.59,47.75 91.84,46.17 91.09,44.60 90.51,43.64 89.94,42.68 89.27,41.71 88.59,40.74 88.50,40.48 88.41,40.22 88.38,39.95 88.34,39.67 88.35,39.40 88.37,39.13 88.44,38.86 88.51,38.60 88.63,38.35 88.75,38.10 88.91,37.88 89.08,37.66 89.28,37.48 89.49,37.30 89.73,37.16 89.96,37.02 90.22,36.93 90.48,36.84 90.75,36.80 91.03,36.77 91.30,36.78 91.57,36.80 91.84,36.87 92.10,36.94 92.35,37.06 92.60,37.18 92.82,37.34 93.04,37.51 93.22,37.71 93.40,37.92 93.54,38.16 93.68,38.39 93.77,38.65 93.86,38.91 93.90,39.18 93.93,39.45 93.92,39.73 93.90,40.00 93.83,40.27 93.76,40.53 93.64,40.78 93.52,41.03 93.36,41.25 93.19,41.47 92.99,41.65 92.78,41.83 92.54,41.97 92.31,42.11 92.05,42.20 91.79,42.29 91.52,42.32 91.25,42.36 90.97,42.35 90.70,42.33 90.43,42.26 90.17,42.19 89.92,42.07 89.67,41.95 89.45,41.79 89.23,41.62 89.05,41.42 88.87,41.21 88.73,40.97 88.59,40.74 88.50,40.48 88.41,40.22 88.38,39.95 88.34,39.67 88.35,39.40 88.37,39.13 88.44,38.86 88.51,38.60 88.63,38.35 88.75,38.10 88.91,37.88 89.08,37.66 89.28,37.48 89.49,37.30 89.73,37.16 89.96,37.02 90.22,36.93 90.48,36.84 90.75,36.80 91.03,36.77 91.30,36.78 91.57,36.80 91.84,36.87 92.10,36.94 92.35,37.06 92.60,37.18 92.82,37.34 93.04,37.51 93.22,37.71 93.40,37.92 94.01,38.75 94.61,39.59 95.32,40.77 96.02,41.95 96.84,43.66 97.65,45.36 98.78,47.81 99.91,50.27 100.59,54.09 101.27,57.91 101.52,62.78 101.78,67.65 100.72,73.16 99.67,78.67 97.57,84.36 95.47,90.05 91.80,96.21 88.12,102.38 82.89,107.92 77.66,113.46 71.34,118.31 65.03,123.16 57.58,126.67 50.13,130.17 42.03,132.50 33.94,134.83 25.44,136.41 16.95,137.99 8.09,138.60 -0.75,139.22 -9.25,138.93 -17.75,138.64 -26.62,138.07 -35.49,137.49 -44.66,136.33 -53.84,135.18 -62.14,133.87 -70.43,132.57 -77.47,130.96 -84.50,129.35 -90.52,127.64 -96.53,125.93 -102.46,123.53 -108.38,121.13 -114.11,118.36 -119.84,115.60 -124.73,112.58 -129.62,109.57 -133.31,106.55 -137.00,103.53 -139.66,100.13 -142.32,96.72 -144.45,93.05 -146.59,89.38 -147.69,85.18 -148.79,80.98 -148.81,76.56 -148.82,72.14 -148.33,65.64 -147.83,59.14 -146.34,50.74 -144.84,42.34 -142.87,35.72 -140.90,29.10 -138.44,22.39 -135.98,15.69 -133.03,11.38 -130.08,7.08 -125.70,3.26 -121.32,-0.56 -115.42,-2.26 -109.53,-3.96 -100.86,-5.09 -92.20,-6.22 -80.10,-6.94 -68.01,-7.67 -56.88,-8.11 -45.74,-8.54 -30.41,-7.90 -15.08,-7.26 -10.14,-5.97 -5.20,-4.68 -2.15,-3.66 0.88,-2.65 0.88,-2.65 L 0.88,-2.65 Z"></path></g><g transform="translate(83 64) rotate(0 -12 28.5)" stroke="none"><path fill="#1e1e1e" d="M 0.88,-2.65 Q 0.88,-2.65 1.13,-2.54 1.38,-2.43 1.61,-2.27 1.83,-2.11 2.02,-1.91 2.21,-1.71 2.35,-1.48 2.50,-1.25 2.60,-0.99 2.70,-0.73 2.74,-0.46 2.79,-0.19 2.78,0.07 2.77,0.35 2.71,0.61 2.65,0.88 2.54,1.13 2.43,1.38 2.27,1.61 2.11,1.83 1.91,2.02 1.71,2.21 1.48,2.35 1.25,2.50 0.99,2.60 0.73,2.70 0.46,2.74 0.19,2.79 -0.07,2.78 -0.35,2.77 -0.61,2.71 -0.88,2.65 -2.47,2.12 -4.07,1.58 -5.43,0.88 -6.79,0.18 -12.04,-0.39 -17.30,-0.96 -20.20,-1.27 -23.11,-1.57 -26.95,-1.48 -30.79,-1.39 -35.14,-0.86 -39.48,-0.34 -43.34,0.64 -47.20,1.63 -50.78,2.83 -54.36,4.03 -57.52,5.80 -60.69,7.56 -62.87,9.28 -65.06,11.01 -66.29,12.88 -67.53,14.75 -68.14,16.69 -68.75,18.62 -68.63,20.64 -68.50,22.65 -67.77,25.07 -67.04,27.49 -65.73,29.90 -64.43,32.31 -62.60,34.94 -60.77,37.58 -58.21,40.06 -55.66,42.54 -52.20,45.00 -48.75,47.46 -44.14,49.90 -39.54,52.33 -34.83,53.79 -30.13,55.24 -24.86,56.22 -19.59,57.19 -13.25,57.44 -6.92,57.69 -0.31,57.57 6.29,57.45 11.71,56.67 17.12,55.89 22.00,54.29 26.89,52.69 30.93,50.97 34.97,49.26 37.54,47.12 40.10,44.98 41.60,42.58 43.09,40.18 43.80,38.29 44.52,36.39 44.22,34.19 43.92,31.99 43.12,29.71 42.32,27.43 40.74,25.09 39.16,22.75 37.40,20.59 35.63,18.43 33.54,16.37 31.44,14.32 29.24,12.36 27.04,10.41 24.58,9.00 22.12,7.59 19.68,6.63 17.24,5.67 14.06,4.70 10.89,3.72 7.37,3.00 3.86,2.27 0.38,1.90 -3.08,1.54 -6.00,1.36 -8.91,1.17 -11.00,1.32 -13.09,1.46 -14.66,1.78 -16.24,2.10 -17.61,2.28 -18.98,2.46 -19.26,2.43 -19.53,2.39 -19.79,2.30 -20.04,2.20 -20.28,2.06 -20.52,1.92 -20.72,1.74 -20.93,1.56 -21.09,1.34 -21.26,1.12 -21.37,0.87 -21.49,0.62 -21.56,0.36 -21.63,0.09 -21.64,-0.17 -21.66,-0.45 -21.62,-0.72 -21.58,-0.99 -21.49,-1.25 -21.40,-1.51 -21.26,-1.74 -21.12,-1.98 -20.94,-2.18 -20.75,-2.39 -20.53,-2.55 -20.31,-2.72 -20.07,-2.84 -19.82,-2.95 -19.55,-3.02 -19.29,-3.09 -19.01,-3.11 -18.74,-3.12 -18.47,-3.08 -18.19,-3.04 -17.94,-2.95 -17.68,-2.86 -17.44,-2.72 -17.20,-2.58 -17.00,-2.40 -16.80,-2.21 -16.63,-1.99 -16.47,-1.77 -16.35,-1.53 -16.23,-1.28 -16.16,-1.01 -16.09,-0.75 -16.08,-0.47 -16.06,-0.20 -16.10,0.06 -16.14,0.33 -16.23,0.59 -16.32,0.85 -16.46,1.09 -16.60,1.32 -16.79,1.53 -16.97,1.73 -17.19,1.90 -17.41,2.06 -17.66,2.18 -17.90,2.30 -18.17,2.37 -18.44,2.43 -18.71,2.45 -18.98,2.46 -19.26,2.43 -19.53,2.39 -19.79,2.30 -20.04,2.20 -20.28,2.06 -20.52,1.92 -20.72,1.74 -20.93,1.56 -21.09,1.34 -21.26,1.12 -21.37,0.87 -21.49,0.62 -21.56,0.36 -21.63,0.09 -21.64,-0.17 -21.66,-0.45 -21.62,-0.72 -21.58,-0.99 -21.49,-1.25 -21.40,-1.51 -21.26,-1.74 -21.12,-1.98 -20.94,-2.18 -20.75,-2.39 -20.53,-2.55 -20.31,-2.72 -20.07,-2.84 -19.82,-2.95 -19.55,-3.02 -19.29,-3.09 -18.25,-3.25 -17.21,-3.41 -15.52,-3.74 -13.83,-4.08 -11.38,-4.25 -8.93,-4.42 -5.77,-4.22 -2.62,-4.03 1.05,-3.64 4.72,-3.25 8.50,-2.47 12.27,-1.69 15.68,-0.65 19.09,0.39 21.82,1.46 24.55,2.54 27.43,4.20 30.31,5.86 32.78,8.04 35.26,10.22 37.51,12.44 39.77,14.65 41.71,17.03 43.66,19.42 45.49,22.17 47.32,24.92 48.35,27.81 49.37,30.71 49.73,33.86 50.08,37.02 49.10,39.82 48.12,42.63 46.22,45.65 44.33,48.66 41.11,51.35 37.90,54.04 33.38,55.98 28.86,57.93 23.63,59.64 18.39,61.34 12.57,62.19 6.75,63.03 -0.11,63.16 -6.98,63.29 -13.59,63.02 -20.21,62.76 -25.84,61.72 -31.47,60.68 -36.58,59.09 -41.68,57.51 -46.69,54.87 -51.69,52.23 -55.47,49.53 -59.24,46.84 -62.14,44.02 -65.04,41.20 -67.12,38.22 -69.20,35.25 -70.70,32.44 -72.21,29.64 -73.12,26.63 -74.02,23.62 -74.16,20.77 -74.30,17.93 -73.45,15.14 -72.59,12.35 -70.89,9.79 -69.18,7.22 -66.49,5.07 -63.80,2.91 -60.22,0.91 -56.63,-1.08 -52.71,-2.40 -48.79,-3.73 -44.65,-4.78 -40.51,-5.84 -35.85,-6.41 -31.20,-6.98 -27.04,-7.07 -22.88,-7.17 -19.79,-6.85 -16.69,-6.53 -10.95,-5.85 -5.20,-5.18 -3.56,-4.38 -1.92,-3.58 -0.52,-3.12 0.88,-2.65 0.88,-2.65 L 0.88,-2.65 Z"></path></g><g transform="translate(21 76) rotate(0 13 -27.5)" stroke="none"><path fill="#1e1e1e" d="M 1.71,-2.8 Q 1.71,-2.8 0.27,-2.77 0.54,-2.74 0.80,-2.66 1.07,-2.58 1.31,-2.45 1.55,-2.32 1.76,-2.15 1.97,-1.97 2.15,-1.76 2.32,-1.55 2.45,-1.31 2.58,-1.07 2.66,-0.80 2.74,-0.54 2.77,-0.27 2.8,3.42 2.77,0.27 2.74,0.54 2.66,0.80 2.58,1.07 2.45,1.31 2.32,1.55 2.15,1.76 1.97,1.97 1.76,2.15 1.55,2.32 1.31,2.45 1.07,2.58 0.80,2.66 0.54,2.74 0.27,2.77 -1.71,2.8 -0.65,2.73 -1.31,2.67 -2.25,2.09 -3.20,1.50 -3.88,0.56 -4.56,-0.37 -5.04,-1.46 -5.52,-2.54 -6.47,-4.02 -7.43,-5.49 -8.51,-7.44 -9.60,-9.39 -10.42,-12.26 -11.24,-15.12 -11.63,-17.58 -12.03,-20.03 -12.22,-22.68 -12.42,-25.33 -11.95,-27.88 -11.48,-30.44 -10.21,-33.21 -8.93,-35.99 -7.52,-38.91 -6.10,-41.83 -4.05,-44.66 -2.00,-47.48 0.01,-49.63 2.04,-51.77 3.36,-53.15 4.68,-54.52 6.42,-55.51 8.15,-56.51 9.80,-55.74 11.45,-54.98 12.46,-53.85 13.47,-52.71 14.69,-51.16 15.92,-49.61 17.25,-47.62 18.58,-45.64 19.96,-43.94 21.34,-42.25 23.05,-40.11 24.77,-37.98 26.36,-35.94 27.95,-33.90 29.46,-32.16 30.98,-30.42 32.16,-29.13 33.34,-27.83 34.03,-27.29 34.72,-26.75 35.52,-26.33 36.33,-25.90 36.52,-25.71 36.72,-25.52 36.88,-25.30 37.04,-25.08 37.15,-24.82 37.26,-24.57 37.32,-24.31 37.39,-24.04 37.39,-23.76 37.40,-23.49 37.35,-23.22 37.31,-22.95 37.21,-22.69 37.11,-22.44 36.96,-22.20 36.82,-21.97 36.63,-21.77 36.44,-21.57 36.22,-21.42 35.99,-21.26 35.74,-21.14 35.49,-21.03 35.22,-20.97 34.96,-20.91 34.68,-20.90 34.41,-20.90 34.14,-20.94 33.87,-20.99 33.61,-21.09 33.35,-21.19 33.12,-21.33 32.89,-21.48 32.69,-21.67 32.49,-21.86 32.33,-22.08 32.17,-22.31 32.06,-22.56 31.95,-22.81 31.89,-23.07 31.83,-23.34 31.82,-23.62 31.81,-23.89 31.86,-24.16 31.91,-24.43 32.01,-24.69 32.10,-24.94 32.25,-25.18 32.40,-25.41 32.58,-25.61 32.77,-25.81 33.00,-25.97 33.22,-26.12 33.47,-26.24 33.72,-26.35 33.99,-26.41 34.26,-26.47 34.53,-26.48 34.81,-26.48 35.08,-26.44 35.35,-26.39 35.60,-26.29 35.86,-26.19 36.09,-26.05 36.33,-25.90 36.52,-25.71 36.72,-25.52 36.88,-25.30 37.04,-25.08 37.15,-24.82 37.26,-24.57 37.32,-24.31 37.39,-24.04 37.39,-23.76 37.40,-23.49 37.35,-23.22 37.31,-22.95 37.21,-22.69 37.11,-22.44 36.96,-22.20 36.82,-21.97 36.63,-21.77 36.44,-21.57 36.22,-21.42 35.99,-21.26 35.74,-21.14 35.49,-21.03 35.22,-20.97 34.96,-20.91 34.68,-20.90 34.41,-20.90 34.14,-20.94 33.87,-20.99 33.61,-21.09 33.35,-21.19 32.54,-21.60 31.72,-22.02 30.63,-22.87 29.54,-23.72 28.17,-25.20 26.80,-26.69 25.21,-28.51 23.63,-30.34 22.00,-32.42 20.38,-34.50 18.68,-36.61 16.98,-38.73 15.53,-40.52 14.07,-42.31 12.73,-44.31 11.39,-46.31 10.27,-47.72 9.16,-49.13 8.48,-49.93 7.81,-50.72 8.09,-50.82 8.37,-50.91 8.38,-50.62 8.39,-50.32 7.24,-49.12 6.10,-47.91 4.20,-45.91 2.30,-43.91 0.50,-41.43 -1.30,-38.96 -2.58,-36.28 -3.87,-33.59 -5.01,-31.17 -6.14,-28.74 -6.48,-26.88 -6.83,-25.03 -6.65,-22.86 -6.47,-20.69 -6.12,-18.51 -5.77,-16.33 -5.10,-13.94 -4.43,-11.54 -3.53,-9.96 -2.63,-8.38 -1.61,-6.79 -0.59,-5.20 -0.14,-4.16 0.31,-3.12 0.51,-2.81 0.70,-2.50 0.50,-2.59 0.31,-2.67 0.15,-2.73 1.71,-2.8 1.71,-2.8 L 1.71,-2.8 Z"></path></g><g transform="translate(95 65) rotate(0 25 -2)" stroke="none"><path fill="#1e1e1e" d="M 2.8,1.71 Q 2.8,1.71 2.77,0.27 2.74,0.54 2.66,0.80 2.58,1.07 2.45,1.31 2.32,1.55 2.15,1.76 1.97,1.97 1.76,2.15 1.55,2.32 1.31,2.45 1.07,2.58 0.80,2.66 0.54,2.74 0.27,2.77 -3.42,2.8 -0.27,2.77 -0.54,2.74 -0.80,2.66 -1.07,2.58 -1.31,2.45 -1.55,2.32 -1.76,2.15 -1.97,1.97 -2.15,1.76 -2.32,1.55 -2.45,1.31 -2.58,1.07 -2.66,0.80 -2.74,0.54 -2.77,0.27 -2.8,-1.71 -2.50,-1.11 -2.20,-2.22 -1.35,-2.66 -0.51,-3.10 -0.22,-3.44 0.06,-3.78 1.34,-4.09 2.63,-4.41 3.73,-4.72 4.83,-5.03 6.12,-5.42 7.41,-5.82 9.31,-6.52 11.20,-7.22 12.91,-7.82 14.61,-8.42 16.59,-9.17 18.57,-9.92 21.20,-11.47 23.83,-13.02 26.19,-14.82 28.55,-16.62 30.23,-17.76 31.91,-18.90 33.44,-20.18 34.96,-21.45 36.23,-22.59 37.50,-23.73 38.73,-24.88 39.96,-26.03 40.71,-26.50 41.46,-26.98 41.90,-27.53 42.35,-28.08 42.93,-28.44 43.51,-28.79 43.70,-28.91 43.89,-29.03 44.20,-29.55 44.50,-30.06 46.39,-30.61 48.28,-31.16 49.27,-29.70 50.25,-28.24 50.87,-26.85 51.49,-25.46 51.83,-23.56 52.18,-21.65 52.34,-19.22 52.50,-16.79 52.57,-14.34 52.65,-11.89 52.68,-8.91 52.72,-5.94 52.74,-3.70 52.76,-1.47 52.77,0.89 52.78,3.26 52.78,5.29 52.78,7.33 52.50,9.23 52.23,11.14 51.80,12.69 51.37,14.25 50.82,15.41 50.27,16.58 49.55,17.55 48.82,18.53 48.37,19.39 47.92,20.25 47.11,20.96 46.29,21.66 45.98,21.74 45.67,21.82 45.47,22.13 45.27,22.44 44.96,22.57 44.64,22.70 44.38,23.10 44.11,23.51 43.20,23.87 42.30,24.22 41.89,24.49 41.48,24.75 40.89,25.04 40.31,25.33 39.91,25.80 39.52,26.27 39.29,26.42 39.06,26.56 38.80,26.67 38.55,26.77 38.28,26.82 38.01,26.87 37.73,26.86 37.46,26.86 37.19,26.80 36.92,26.75 36.67,26.64 36.42,26.53 36.19,26.37 35.96,26.22 35.77,26.02 35.58,25.83 35.43,25.60 35.28,25.37 35.18,25.11 35.08,24.86 35.03,24.59 34.98,24.32 34.98,24.04 34.99,23.77 35.04,23.50 35.10,23.23 35.21,22.98 35.32,22.73 35.47,22.50 35.63,22.27 35.82,22.08 36.02,21.89 36.25,21.74 36.48,21.59 36.74,21.49 36.99,21.39 37.26,21.34 37.53,21.29 37.80,21.29 38.08,21.30 38.35,21.35 38.62,21.41 38.87,21.52 39.12,21.63 39.35,21.78 39.57,21.94 39.76,22.13 39.96,22.33 40.10,22.56 40.25,22.79 40.36,23.05 40.46,23.30 40.51,23.57 40.56,23.84 40.55,24.11 40.55,24.39 40.49,24.66 40.44,24.93 40.33,25.18 40.22,25.43 40.06,25.66 39.91,25.88 39.71,26.07 39.52,26.27 39.29,26.42 39.06,26.56 38.80,26.67 38.55,26.77 38.28,26.82 38.01,26.87 37.73,26.86 37.46,26.86 37.19,26.80 36.92,26.75 36.67,26.64 36.42,26.53 36.19,26.37 35.96,26.22 35.77,26.02 35.58,25.83 35.43,25.60 35.28,25.37 35.18,25.11 35.08,24.86 35.03,24.59 34.98,24.32 34.98,24.04 34.99,23.77 35.04,23.50 35.10,23.23 35.21,22.98 35.32,22.73 35.47,22.50 35.63,22.27 36.20,21.63 36.77,20.99 37.73,20.44 38.69,19.90 39.37,19.50 40.06,19.09 40.33,19.12 40.61,19.14 40.71,18.87 40.81,18.61 41.23,18.40 41.65,18.18 41.91,17.81 42.18,17.44 42.80,17.15 43.41,16.86 43.46,16.84 43.50,16.81 43.77,16.21 44.04,15.61 44.75,14.65 45.47,13.70 45.79,13.00 46.12,12.31 46.43,11.15 46.75,9.99 46.97,8.46 47.19,6.93 47.18,5.10 47.18,3.28 47.17,0.91 47.16,-1.44 47.14,-3.66 47.12,-5.88 47.08,-8.82 47.05,-11.76 46.97,-14.14 46.90,-16.52 46.76,-18.75 46.62,-20.98 46.38,-22.39 46.13,-23.81 45.57,-25.06 45.00,-26.31 45.61,-26.13 46.23,-25.95 47.38,-26.06 48.54,-26.17 48.36,-25.80 48.18,-25.43 47.42,-24.80 46.65,-24.16 46.32,-23.99 45.99,-23.83 45.61,-23.34 45.23,-22.85 44.33,-22.24 43.43,-21.63 42.36,-20.62 41.29,-19.60 39.96,-18.41 38.62,-17.21 36.95,-15.82 35.28,-14.44 33.56,-13.25 31.83,-12.07 29.39,-10.22 26.95,-8.37 23.97,-6.62 21.00,-4.87 18.77,-4.01 16.54,-3.16 14.82,-2.55 13.10,-1.95 11.15,-1.23 9.20,-0.51 7.80,-0.08 6.41,0.34 5.13,0.69 3.86,1.04 3.40,1.03 2.93,1.03 2.72,1.31 2.51,1.60 2.35,1.41 2.20,1.22 2.50,0.61 2.8,1.71 2.8,1.71 L 2.8,1.71 Z"></path></g><g transform="translate(35 78) rotate(0 2 6.5)" stroke="none"><path fill="#1e1e1e" d="M -1.71,2.8 Q -1.71,2.8 -0.27,2.77 -0.54,2.74 -0.80,2.66 -1.07,2.58 -1.31,2.45 -1.55,2.32 -1.76,2.15 -1.97,1.97 -2.15,1.76 -2.32,1.55 -2.45,1.31 -2.58,1.07 -2.66,0.80 -2.74,0.54 -2.77,0.27 -2.8,-3.42 -2.77,-0.27 -2.74,-0.54 -2.66,-0.80 -2.58,-1.07 -2.45,-1.31 -2.32,-1.55 -2.15,-1.76 -1.97,-1.97 -1.76,-2.15 -1.55,-2.32 -1.31,-2.45 -1.07,-2.58 -0.80,-2.66 -0.54,-2.74 -0.27,-2.77 1.71,-2.8 -0.48,-2.59 -0.97,-2.38 -1.36,-2.06 -1.75,-1.75 -1.23,-2.31 -0.72,-2.88 0.01,-3.09 0.75,-3.29 1.48,-3.09 2.22,-2.88 2.73,-2.31 3.25,-1.75 3.40,-1.39 3.56,-1.02 3.62,-0.59 3.68,-0.16 3.93,0.68 4.19,1.53 4.35,2.37 4.50,3.22 4.58,4.17 4.66,5.11 4.69,5.82 4.73,6.54 4.73,6.99 4.74,7.44 4.92,8.19 5.11,8.95 5.48,9.69 5.84,10.43 6.12,11.45 6.40,12.46 6.40,12.74 6.40,13.01 6.35,13.28 6.29,13.55 6.19,13.80 6.08,14.05 5.93,14.28 5.77,14.51 5.58,14.70 5.38,14.90 5.15,15.05 4.92,15.20 4.67,15.30 4.42,15.41 4.15,15.46 3.88,15.51 3.60,15.51 3.33,15.51 3.06,15.45 2.79,15.40 2.54,15.29 2.28,15.19 2.06,15.03 1.83,14.88 1.64,14.68 1.44,14.49 1.29,14.26 1.14,14.03 1.04,13.78 0.93,13.52 0.88,13.25 0.83,12.98 0.83,12.71 0.83,12.44 0.89,12.17 0.94,11.90 1.05,11.64 1.15,11.39 1.31,11.16 1.46,10.94 1.66,10.74 1.85,10.55 2.08,10.40 2.31,10.25 2.56,10.14 2.82,10.04 3.09,9.99 3.35,9.94 3.63,9.94 3.90,9.94 4.17,9.99 4.44,10.05 4.69,10.15 4.95,10.26 5.18,10.41 5.40,10.57 5.60,10.76 5.79,10.96 5.94,11.19 6.09,11.42 6.20,11.67 6.30,11.92 6.35,12.19 6.40,12.46 6.40,12.74 6.40,13.01 6.35,13.28 6.29,13.55 6.19,13.80 6.08,14.05 5.93,14.28 5.77,14.51 5.58,14.70 5.38,14.90 5.15,15.05 4.92,15.20 4.67,15.30 4.42,15.41 4.15,15.46 3.88,15.51 3.60,15.51 3.33,15.51 3.06,15.45 2.79,15.40 2.54,15.29 2.28,15.19 2.06,15.03 1.83,14.88 1.64,14.68 1.44,14.49 1.29,14.26 1.14,14.03 1.04,13.78 0.93,13.52 0.78,13.00 0.63,12.47 0.24,11.67 -0.14,10.87 -0.47,9.53 -0.80,8.20 -0.83,7.47 -0.86,6.75 -0.89,6.11 -0.92,5.47 -0.98,4.71 -1.04,3.96 -1.14,3.40 -1.25,2.84 -1.53,1.87 -1.81,0.91 -1.81,0.71 -1.81,0.52 -1.78,0.64 -1.75,0.75 -0.50,1.52 0.75,2.3 -0.50,0.27 -1.75,-1.75 -1.23,-2.31 -0.72,-2.88 0.01,-3.09 0.75,-3.3 1.48,-3.09 2.22,-2.88 2.73,-2.31 3.25,-1.75 2.00,0.27 0.75,2.3 2.00,1.52 3.25,0.75 2.61,1.56 1.97,2.38 0.98,2.59 -1.71,2.8 -1.71,2.8 L -1.71,2.8 Z"></path></g><g transform="translate(79 79) rotate(0 1 10)" stroke="none"><path fill="#1e1e1e" d="M -2.8,-1.71 Q -2.8,-1.71 -2.77,-0.27 -2.74,-0.54 -2.66,-0.80 -2.58,-1.07 -2.45,-1.31 -2.32,-1.55 -2.15,-1.76 -1.97,-1.97 -1.76,-2.15 -1.55,-2.32 -1.31,-2.45 -1.07,-2.58 -0.80,-2.66 -0.54,-2.74 -0.27,-2.77 3.42,-2.8 0.27,-2.77 0.54,-2.74 0.80,-2.66 1.07,-2.58 1.31,-2.45 1.55,-2.32 1.76,-2.15 1.97,-1.97 2.15,-1.76 2.32,-1.55 2.45,-1.31 2.58,-1.07 2.66,-0.80 2.74,-0.54 2.77,-0.27 2.8,1.71 2.8,0.50 2.8,1 2.79,1.93 2.79,2.87 3.04,5.56 3.29,8.26 3.41,9.92 3.54,11.58 3.60,13.18 3.67,14.77 3.70,15.82 3.73,16.86 3.68,17.24 3.63,17.62 3.96,18.40 4.28,19.19 3.77,20.37 3.27,21.54 3.06,21.72 2.85,21.90 2.61,22.04 2.37,22.17 2.11,22.26 1.85,22.34 1.58,22.38 1.31,22.41 1.03,22.39 0.76,22.37 0.50,22.30 0.23,22.22 -0.00,22.10 -0.25,21.98 -0.47,21.81 -0.68,21.64 -0.86,21.43 -1.04,21.23 -1.18,20.99 -1.31,20.75 -1.40,20.49 -1.48,20.23 -1.52,19.95 -1.55,19.68 -1.53,19.41 -1.51,19.13 -1.44,18.87 -1.37,18.61 -1.24,18.36 -1.12,18.12 -0.95,17.90 -0.78,17.68 -0.57,17.50 -0.37,17.32 -0.13,17.19 0.10,17.05 0.36,16.97 0.62,16.88 0.89,16.85 1.17,16.81 1.44,16.83 1.71,16.85 1.98,16.93 2.24,17.00 2.49,17.12 2.73,17.25 2.95,17.41 3.17,17.58 3.35,17.79 3.53,18.00 3.66,18.24 3.80,18.48 3.88,18.74 3.97,19.00 4.00,19.27 4.04,19.54 4.02,19.82 4.00,20.09 3.92,20.35 3.85,20.62 3.73,20.86 3.60,21.11 3.43,21.33 3.27,21.54 3.06,21.72 2.85,21.90 2.61,22.04 2.37,22.17 2.11,22.26 1.85,22.34 1.58,22.38 1.31,22.41 1.03,22.39 0.76,22.37 0.50,22.30 0.23,22.22 -0.00,22.10 -0.25,21.98 -0.47,21.81 -0.68,21.64 -0.86,21.43 -1.04,21.23 -1.18,20.99 -1.31,20.75 -1.40,20.49 -1.48,20.23 -1.52,19.95 -1.55,19.68 -1.53,19.41 -1.51,19.13 -1.44,18.87 -1.37,18.61 -1.24,18.36 -1.12,18.12 -1.21,18.69 -1.31,19.27 -1.50,19.29 -1.70,19.31 -1.78,18.16 -1.86,17.00 -1.89,15.99 -1.92,14.97 -1.98,13.44 -2.04,11.91 -2.16,10.32 -2.29,8.73 -2.54,5.93 -2.79,3.12 -2.79,2.06 -2.8,1 -2.8,0.49 -2.8,-1.71 -2.8,-1.71 L -2.8,-1.71 Z"></path></g><g transform="translate(45 97) rotate(0 10 8.5)" stroke="none"><path fill="#1e1e1e" d="M -2.8,-1.71 Q -2.8,-1.71 -2.77,-0.27 -2.74,-0.54 -2.66,-0.80 -2.58,-1.07 -2.45,-1.31 -2.32,-1.55 -2.15,-1.76 -1.97,-1.97 -1.76,-2.15 -1.55,-2.32 -1.31,-2.45 -1.07,-2.58 -0.80,-2.66 -0.54,-2.74 -0.27,-2.77 3.42,-2.8 0.27,-2.77 0.54,-2.74 0.80,-2.66 1.07,-2.58 1.31,-2.45 1.55,-2.32 1.76,-2.15 1.97,-1.97 2.15,-1.76 2.32,-1.55 2.45,-1.31 2.58,-1.07 2.66,-0.80 2.74,-0.54 2.77,-0.27 2.8,1.71 2.8,0.25 2.8,0.5 2.8,0.87 2.8,1.25 2.8,1.68 2.8,2.12 2.8,2.84 2.8,3.56 2.8,4.42 2.8,5.28 2.73,5.52 2.66,5.76 2.46,5.45 2.26,5.14 2.18,5.06 2.10,4.99 2.30,5.02 2.51,5.05 2.64,5.09 2.76,5.13 3.08,5.01 3.39,4.89 3.89,4.59 4.39,4.28 5.01,3.98 5.63,3.67 5.72,3.56 5.81,3.45 5.86,3.29 5.92,3.13 6.52,1.94 7.12,0.74 9.01,0.89 10.91,1.04 11.32,2.47 11.74,3.90 11.74,4.71 11.73,5.52 12.15,6.72 12.57,7.92 13.25,9.27 13.93,10.62 14.40,11.40 14.88,12.19 15.46,12.71 16.05,13.24 15.95,13.41 15.84,13.58 14.82,13.46 13.80,13.35 13.55,13.47 13.30,13.60 13.54,13.19 13.78,12.79 14.25,11.95 14.73,11.11 15.21,10.44 15.70,9.77 16.09,9.11 16.49,8.45 16.65,8.00 16.82,7.55 16.90,7.13 16.99,6.71 17.03,6.28 17.08,5.84 17.11,5.37 17.14,4.91 17.15,4.43 17.17,3.95 17.17,3.46 17.18,2.97 17.18,2.48 17.19,1.98 17.22,1.21 17.25,0.44 17.33,0.18 17.41,-0.07 17.54,-0.32 17.67,-0.56 17.84,-0.77 18.02,-0.98 18.23,-1.15 18.44,-1.33 18.69,-1.45 18.93,-1.58 19.19,-1.66 19.46,-1.74 19.73,-1.77 20.00,-1.79 20.27,-1.76 20.55,-1.74 20.81,-1.66 21.07,-1.58 21.31,-1.44 21.56,-1.31 21.77,-1.14 21.98,-0.96 22.15,-0.75 22.33,-0.54 22.45,-0.30 22.58,-0.05 22.66,0.20 22.74,0.46 22.77,0.74 22.79,1.01 22.76,1.28 22.74,1.55 22.65,1.82 22.57,2.08 22.44,2.32 22.31,2.56 22.14,2.77 21.96,2.98 21.75,3.16 21.54,3.33 21.30,3.46 21.05,3.59 20.79,3.67 20.53,3.75 20.25,3.77 19.98,3.80 19.71,3.77 19.43,3.74 19.17,3.66 18.91,3.58 18.67,3.45 18.43,3.32 18.22,3.14 18.00,2.97 17.83,2.76 17.66,2.54 17.53,2.30 17.40,2.06 17.32,1.80 17.24,1.53 17.22,1.26 17.19,0.99 17.22,0.71 17.25,0.44 17.33,0.18 17.41,-0.07 17.54,-0.32 17.67,-0.56 17.84,-0.77 18.02,-0.98 18.23,-1.15 18.44,-1.33 18.69,-1.45 18.93,-1.58 19.19,-1.66 19.46,-1.74 19.73,-1.77 20.00,-1.79 20.27,-1.76 20.55,-1.74 20.81,-1.66 21.07,-1.58 21.31,-1.44 21.56,-1.31 21.77,-1.14 21.98,-0.96 22.15,-0.75 22.33,-0.54 22.45,-0.30 22.58,-0.05 22.66,0.20 22.74,0.46 22.77,0.74 22.79,1.01 22.79,1.51 22.79,2.02 22.78,2.53 22.78,3.04 22.77,3.56 22.76,4.08 22.75,4.62 22.73,5.16 22.70,5.74 22.66,6.32 22.59,6.96 22.51,7.60 22.36,8.35 22.20,9.10 21.87,9.97 21.55,10.85 20.96,11.85 20.38,12.84 19.91,13.49 19.44,14.13 19.01,14.91 18.57,15.70 17.99,16.55 17.41,17.39 16.52,18.02 15.62,18.64 14.32,18.53 13.02,18.41 12.35,17.58 11.69,16.75 11.15,16.28 10.60,15.80 9.83,14.59 9.05,13.37 8.22,11.72 7.40,10.07 6.80,8.27 6.21,6.46 6.18,5.27 6.15,4.08 6.51,4.51 6.88,4.93 8.68,5.08 10.47,5.22 10.87,5.00 11.27,4.79 10.92,5.60 10.57,6.40 9.84,7.23 9.12,8.05 8.13,8.61 7.13,9.16 6.40,9.59 5.66,10.01 4.51,10.35 3.35,10.69 2.54,10.65 1.73,10.60 1.06,10.46 0.39,10.32 -0.43,9.91 -1.26,9.49 -1.96,8.50 -2.66,7.51 -2.73,6.39 -2.8,5.28 -2.8,4.42 -2.8,3.56 -2.8,2.84 -2.8,2.12 -2.8,1.68 -2.8,1.25 -2.8,0.87 -2.8,0.5 -2.8,0.24 -2.8,-1.71 -2.8,-1.71 L -2.8,-1.71 Z"></path></g><g transform="translate(132 102) rotate(0 62.00000000000003 16)" stroke="none"><path fill="#1e1e1e" d="M -1.71,2.8 Q -1.71,2.8 -0.27,2.77 -0.54,2.74 -0.80,2.66 -1.07,2.58 -1.31,2.45 -1.55,2.32 -1.76,2.15 -1.97,1.97 -2.15,1.76 -2.32,1.55 -2.45,1.31 -2.58,1.07 -2.66,0.80 -2.74,0.54 -2.77,0.27 -2.8,-3.42 -2.77,-0.27 -2.74,-0.54 -2.66,-0.80 -2.58,-1.07 -2.45,-1.31 -2.32,-1.55 -2.15,-1.76 -1.97,-1.97 -1.76,-2.15 -1.55,-2.32 -1.31,-2.45 -1.07,-2.58 -0.80,-2.66 -0.54,-2.74 -0.27,-2.77 1.71,-2.8 0.04,-2.78 0.08,-2.76 1.56,-3.23 3.04,-3.70 5.40,-4.22 7.77,-4.73 11.22,-5.49 14.66,-6.25 18.68,-6.88 22.70,-7.52 27.42,-8.08 32.14,-8.64 36.75,-9.42 41.37,-10.20 46.71,-10.85 52.04,-11.49 56.74,-12.07 61.43,-12.64 66.06,-12.93 70.70,-13.22 74.26,-13.36 77.83,-13.51 81.12,-13.58 84.41,-13.65 86.87,-13.69 89.34,-13.72 91.83,-13.49 94.32,-13.25 96.49,-13.14 98.67,-13.02 100.59,-12.96 102.52,-12.90 104.48,-12.62 106.43,-12.34 108.49,-12.18 110.55,-12.03 112.72,-11.42 114.88,-10.80 117.23,-9.98 119.58,-9.15 121.46,-8.26 123.33,-7.36 125.24,-6.68 127.15,-5.99 129.14,-5.14 131.12,-4.28 132.82,-3.62 134.51,-2.96 136.20,-2.35 137.88,-1.74 139.02,-1.16 140.15,-0.58 141.36,0.05 142.58,0.68 143.43,1.51 144.27,2.33 145.10,2.92 145.93,3.51 146.59,4.05 147.25,4.59 148.18,5.19 149.10,5.78 150.15,6.92 151.20,8.05 152.21,9.12 153.22,10.18 153.99,11.23 154.75,12.28 155.43,13.13 156.12,13.98 156.58,14.92 157.04,15.86 157.26,17.11 157.49,18.37 157.30,19.49 157.11,20.62 157.01,21.37 156.92,22.12 156.54,23.51 156.15,24.90 155.43,26.10 154.70,27.31 154.03,28.48 153.36,29.65 152.38,30.62 151.40,31.59 150.06,32.61 148.71,33.64 146.95,34.43 145.19,35.21 142.79,36.09 140.40,36.98 137.65,37.68 134.91,38.38 132.10,38.96 129.29,39.55 126.33,40.35 123.37,41.15 120.35,41.56 117.32,41.97 114.62,42.41 111.93,42.86 109.26,43.34 106.59,43.82 103.69,44.07 100.79,44.32 98.15,44.43 95.52,44.55 92.69,44.86 89.87,45.17 86.64,45.33 83.42,45.48 79.81,45.56 76.20,45.64 72.40,45.68 68.60,45.72 64.95,45.74 61.30,45.76 57.97,45.77 54.65,45.78 50.93,45.78 47.22,45.78 43.80,45.53 40.39,45.28 37.17,44.90 33.95,44.52 31.05,44.07 28.15,43.62 25.90,43.14 23.65,42.65 21.02,41.90 18.39,41.16 15.39,40.30 12.39,39.44 9.40,38.77 6.41,38.09 3.97,37.51 1.53,36.94 -0.93,36.65 -3.39,36.36 -5.71,35.95 -8.02,35.54 -10.23,35.07 -12.44,34.60 -14.11,34.10 -15.77,33.59 -17.24,33.03 -18.70,32.47 -19.89,31.70 -21.08,30.93 -22.49,30.25 -23.90,29.57 -24.86,28.73 -25.81,27.89 -26.47,27.52 -27.13,27.14 -27.95,26.51 -28.77,25.89 -29.33,25.15 -29.89,24.41 -30.73,23.72 -31.58,23.04 -31.73,22.81 -31.89,22.59 -32.00,22.33 -32.11,22.08 -32.17,21.81 -32.22,21.55 -32.23,21.27 -32.23,21.00 -32.19,20.73 -32.14,20.46 -32.04,20.20 -31.94,19.95 -31.79,19.72 -31.64,19.48 -31.45,19.29 -31.26,19.09 -31.03,18.93 -30.81,18.78 -30.56,18.67 -30.31,18.56 -30.04,18.50 -29.77,18.44 -29.49,18.44 -29.22,18.43 -28.95,18.48 -28.68,18.53 -28.42,18.63 -28.17,18.73 -27.94,18.88 -27.71,19.02 -27.51,19.22 -27.31,19.41 -27.16,19.63 -27.00,19.86 -26.89,20.11 -26.78,20.36 -26.72,20.63 -26.66,20.90 -26.66,21.17 -26.65,21.44 -26.70,21.71 -26.75,21.99 -26.85,22.24 -26.95,22.50 -27.10,22.73 -27.25,22.96 -27.44,23.16 -27.63,23.35 -27.85,23.51 -28.08,23.67 -28.33,23.78 -28.58,23.89 -28.85,23.94 -29.12,24.00 -29.39,24.01 -29.67,24.01 -29.94,23.96 -30.21,23.92 -30.46,23.81 -30.72,23.71 -30.95,23.57 -31.18,23.42 -31.38,23.23 -31.58,23.04 -31.73,22.81 -31.89,22.59 -32.00,22.33 -32.11,22.08 -32.17,21.81 -32.22,21.55 -32.23,21.27 -32.23,21.00 -32.19,20.73 -32.14,20.46 -32.04,20.20 -31.94,19.95 -31.79,19.72 -31.64,19.48 -31.45,19.29 -31.26,19.09 -31.03,18.93 -30.81,18.78 -30.56,18.67 -30.31,18.56 -30.04,18.50 -29.77,18.44 -29.49,18.44 -29.22,18.43 -28.95,18.48 -28.68,18.53 -28.42,18.63 -28.17,18.73 -27.94,18.88 -27.71,19.02 -26.80,19.76 -25.89,20.49 -25.35,21.20 -24.81,21.92 -24.43,22.19 -24.04,22.47 -23.29,22.91 -22.54,23.35 -21.67,24.12 -20.81,24.90 -19.58,25.47 -18.35,26.04 -17.26,26.76 -16.16,27.47 -15.06,27.88 -13.96,28.29 -12.50,28.74 -11.05,29.18 -9.00,29.61 -6.96,30.04 -4.77,30.43 -2.58,30.82 -0.03,31.12 2.50,31.42 5.08,32.03 7.67,32.63 10.72,33.33 13.77,34.02 16.85,34.89 19.93,35.77 22.47,36.49 25.01,37.22 27.09,37.67 29.17,38.12 31.94,38.54 34.70,38.97 37.81,39.34 40.92,39.70 44.17,39.95 47.42,40.19 51.03,40.18 54.63,40.18 57.95,40.17 61.27,40.16 64.91,40.14 68.55,40.12 72.33,40.08 76.11,40.04 79.67,39.96 83.22,39.89 86.33,39.74 89.43,39.59 92.26,39.28 95.09,38.97 97.76,38.85 100.43,38.73 103.14,38.50 105.85,38.27 108.41,37.81 110.97,37.34 113.73,36.89 116.49,36.43 119.38,36.05 122.26,35.66 125.12,34.88 127.98,34.10 130.82,33.51 133.65,32.92 136.19,32.28 138.73,31.63 140.91,30.82 143.09,30.02 144.47,29.42 145.85,28.82 146.79,28.09 147.74,27.35 148.33,26.80 148.92,26.24 149.40,25.36 149.87,24.48 150.44,23.58 151.01,22.69 151.21,21.87 151.42,21.06 151.50,20.40 151.57,19.75 151.73,19.06 151.89,18.37 151.81,18.00 151.72,17.63 151.57,17.32 151.41,17.00 150.86,16.35 150.32,15.70 149.62,14.74 148.92,13.77 148.01,12.82 147.10,11.87 146.30,10.97 145.50,10.08 144.74,9.61 143.98,9.14 143.25,8.55 142.53,7.96 141.59,7.28 140.66,6.61 139.98,5.92 139.30,5.22 138.45,4.81 137.61,4.40 136.62,3.89 135.64,3.39 134.09,2.83 132.54,2.27 130.77,1.58 129.00,0.89 127.05,0.05 125.10,-0.78 123.14,-1.49 121.18,-2.20 119.31,-3.09 117.45,-3.98 115.31,-4.72 113.18,-5.47 111.38,-5.99 109.58,-6.52 107.71,-6.64 105.83,-6.77 103.93,-7.05 102.03,-7.32 100.23,-7.38 98.44,-7.43 96.17,-7.55 93.90,-7.67 91.51,-7.90 89.11,-8.13 86.81,-8.09 84.51,-8.05 81.26,-7.98 78.01,-7.91 74.50,-7.77 70.99,-7.63 66.47,-7.35 61.95,-7.07 57.33,-6.50 52.72,-5.93 47.44,-5.30 42.17,-4.66 37.56,-3.88 32.94,-3.10 28.21,-2.54 23.47,-1.97 19.59,-1.36 15.70,-0.74 12.33,-0.00 8.97,0.73 6.71,1.22 4.45,1.70 2.68,2.23 0.91,2.76 0.45,2.78 -1.71,2.8 -1.71,2.8 L -1.71,2.8 Z"></path></g><g transform="translate(106 125) rotate(0 8 22.5)" stroke="none"><path fill="#1e1e1e" d="M 1.71,-2.8 Q 1.71,-2.8 0.27,-2.77 0.54,-2.74 0.80,-2.66 1.07,-2.58 1.31,-2.45 1.55,-2.32 1.76,-2.15 1.97,-1.97 2.15,-1.76 2.32,-1.55 2.45,-1.31 2.58,-1.07 2.66,-0.80 2.74,-0.54 2.77,-0.27 2.8,3.42 2.77,0.27 2.74,0.54 2.66,0.80 2.58,1.07 2.45,1.31 2.32,1.55 2.15,1.76 1.97,1.97 1.76,2.15 1.55,2.32 1.31,2.45 1.07,2.58 0.80,2.66 0.54,2.74 0.27,2.77 -1.71,2.8 0.48,2.59 0.97,2.38 1.25,2.25 1.53,2.12 -0.57,4.31 -2.69,6.50 -3.64,7.96 -4.60,9.42 -6.08,11.64 -7.56,13.87 -8.49,15.60 -9.41,17.33 -10.09,19.31 -10.77,21.28 -11.11,23.23 -11.44,25.17 -10.96,26.96 -10.47,28.75 -9.78,30.36 -9.10,31.98 -8.15,33.38 -7.19,34.78 -5.79,35.96 -4.38,37.14 -2.91,38.26 -1.45,39.38 -0.40,40.08 0.65,40.79 1.50,41.08 2.36,41.36 3.35,41.13 4.34,40.89 5.79,40.35 7.24,39.81 8.89,38.63 10.55,37.44 12.40,35.84 14.26,34.24 16.39,32.24 18.51,30.25 20.26,28.10 22.00,25.95 23.12,24.15 24.24,22.34 25.15,20.79 26.06,19.23 27.04,18.20 28.01,17.18 28.25,17.04 28.48,16.90 28.74,16.81 29.00,16.72 29.28,16.68 29.55,16.64 29.82,16.66 30.09,16.68 30.36,16.75 30.63,16.82 30.87,16.94 31.12,17.06 31.34,17.22 31.56,17.39 31.74,17.59 31.92,17.80 32.06,18.03 32.20,18.27 32.29,18.53 32.38,18.79 32.42,19.06 32.45,19.33 32.44,19.61 32.42,19.88 32.35,20.15 32.28,20.41 32.16,20.66 32.04,20.91 31.88,21.13 31.71,21.34 31.51,21.53 31.30,21.71 31.06,21.85 30.83,21.99 30.57,22.08 30.31,22.17 30.04,22.20 29.76,22.24 29.49,22.22 29.22,22.21 28.95,22.14 28.69,22.07 28.44,21.95 28.19,21.83 27.97,21.66 27.75,21.50 27.57,21.29 27.39,21.09 27.25,20.85 27.11,20.61 27.02,20.35 26.93,20.09 26.90,19.82 26.86,19.55 26.87,19.28 26.89,19.00 26.96,18.74 27.03,18.47 27.15,18.23 27.27,17.98 27.43,17.76 27.60,17.54 27.81,17.36 28.01,17.18 28.25,17.04 28.48,16.90 28.74,16.81 29.00,16.72 29.28,16.68 29.55,16.64 29.82,16.66 30.09,16.68 30.36,16.75 30.63,16.82 30.87,16.94 31.12,17.06 31.34,17.22 31.56,17.39 31.74,17.59 31.92,17.80 32.06,18.03 32.20,18.27 32.29,18.53 32.38,18.79 32.42,19.06 32.45,19.33 32.44,19.61 32.42,19.88 32.35,20.15 32.28,20.41 32.16,20.66 32.04,20.91 31.88,21.13 31.71,21.34 31.14,21.95 30.57,22.55 29.80,23.89 29.04,25.23 27.80,27.21 26.56,29.20 24.59,31.63 22.62,34.06 20.31,36.23 18.01,38.40 16.00,40.12 14.00,41.85 11.93,43.30 9.87,44.76 7.88,45.51 5.88,46.27 3.99,46.61 2.10,46.96 0.19,46.41 -1.72,45.86 -3.20,44.91 -4.68,43.95 -6.29,42.73 -7.89,41.51 -9.62,40.02 -11.36,38.53 -12.68,36.60 -14.01,34.67 -14.89,32.61 -15.77,30.55 -16.40,27.99 -17.04,25.43 -16.62,22.68 -16.20,19.93 -15.38,17.51 -14.55,15.10 -13.46,13.05 -12.37,11.00 -10.82,8.66 -9.27,6.32 -8.16,4.66 -7.05,2.99 -5.04,0.93 -3.03,-1.12 -2.50,-1.75 -1.97,-2.38 -0.98,-2.59 1.71,-2.8 1.71,-2.8 L 1.71,-2.8 Z"></path></g><g transform="translate(136 146) rotate(0 17.5 15.5)" stroke="none"><path fill="#1e1e1e" d="M -2.8,-1.71 Q -2.8,-1.71 -2.77,-0.27 -2.74,-0.54 -2.66,-0.80 -2.58,-1.07 -2.45,-1.31 -2.32,-1.55 -2.15,-1.76 -1.97,-1.97 -1.76,-2.15 -1.55,-2.32 -1.31,-2.45 -1.07,-2.58 -0.80,-2.66 -0.54,-2.74 -0.27,-2.77 3.42,-2.8 0.27,-2.77 0.54,-2.74 0.80,-2.66 1.07,-2.58 1.31,-2.45 1.55,-2.32 1.76,-2.15 1.97,-1.97 2.15,-1.76 2.32,-1.55 2.45,-1.31 2.58,-1.07 2.66,-0.80 2.74,-0.54 2.77,-0.27 2.8,1.71 2.8,0.25 2.8,0.5 2.8,0.87 2.8,1.25 2.8,2.68 2.8,4.12 2.8,5.34 2.8,6.56 2.8,8.17 2.8,9.78 2.79,12.01 2.79,14.24 3.02,16.45 3.24,18.66 3.81,20.65 4.38,22.65 5.06,24.23 5.75,25.82 6.97,27.25 8.18,28.69 8.95,29.37 9.72,30.04 9.96,30.24 10.20,30.44 10.30,30.42 10.41,30.41 11.26,29.80 12.12,29.18 14.70,27.55 17.28,25.92 19.46,24.44 21.65,22.95 23.64,21.07 25.63,19.18 27.08,17.32 28.53,15.45 29.45,13.91 30.37,12.37 30.78,11.09 31.19,9.81 31.19,8.83 31.19,7.86 30.97,6.63 30.75,5.40 30.42,4.11 30.10,2.82 29.67,1.87 29.24,0.92 28.94,-0.17 28.64,-1.26 28.64,-1.54 28.65,-1.81 28.70,-2.08 28.76,-2.35 28.86,-2.60 28.97,-2.86 29.13,-3.08 29.28,-3.31 29.48,-3.50 29.67,-3.70 29.90,-3.85 30.13,-4.00 30.38,-4.10 30.64,-4.20 30.91,-4.26 31.18,-4.31 31.45,-4.30 31.73,-4.30 31.99,-4.25 32.26,-4.19 32.52,-4.08 32.77,-3.98 33.00,-3.82 33.22,-3.67 33.42,-3.47 33.61,-3.28 33.76,-3.05 33.91,-2.82 34.01,-2.57 34.12,-2.31 34.17,-2.04 34.22,-1.77 34.22,-1.50 34.22,-1.22 34.16,-0.95 34.10,-0.69 34.00,-0.43 33.89,-0.18 33.74,0.04 33.58,0.26 33.39,0.46 33.19,0.65 32.96,0.80 32.73,0.95 32.48,1.05 32.22,1.16 31.96,1.21 31.69,1.26 31.41,1.26 31.14,1.26 30.87,1.20 30.60,1.15 30.35,1.04 30.09,0.93 29.87,0.78 29.64,0.62 29.45,0.43 29.25,0.23 29.10,0.00 28.95,-0.22 28.85,-0.47 28.75,-0.72 28.69,-0.99 28.64,-1.26 28.64,-1.54 28.65,-1.81 28.70,-2.08 28.76,-2.35 28.86,-2.60 28.97,-2.86 29.13,-3.08 29.28,-3.31 29.48,-3.50 29.67,-3.70 29.90,-3.85 30.13,-4.00 30.38,-4.10 30.64,-4.20 30.91,-4.26 31.18,-4.31 31.45,-4.30 31.73,-4.30 31.99,-4.25 32.26,-4.19 32.52,-4.08 32.77,-3.98 33.00,-3.82 33.22,-3.67 33.42,-3.47 33.61,-3.28 33.76,-3.05 33.91,-2.82 34.01,-2.57 34.12,-2.31 34.31,-1.66 34.49,-1.01 34.94,-0.01 35.38,0.98 35.80,2.60 36.22,4.22 36.50,5.81 36.77,7.39 36.75,9.04 36.72,10.69 36.10,12.67 35.48,14.65 34.32,16.63 33.16,18.60 31.47,20.78 29.77,22.95 27.47,25.13 25.16,27.31 22.76,28.96 20.35,30.61 17.75,32.25 15.14,33.89 13.64,34.82 12.13,35.74 10.51,35.81 8.88,35.88 7.67,35.24 6.46,34.60 5.32,33.60 4.18,32.60 2.59,30.69 0.99,28.77 0.05,26.66 -0.88,24.54 -1.56,22.13 -2.24,19.72 -2.52,17.13 -2.79,14.53 -2.79,12.15 -2.8,9.78 -2.8,8.17 -2.8,6.56 -2.8,5.34 -2.8,4.12 -2.8,2.68 -2.8,1.25 -2.8,0.87 -2.8,0.5 -2.8,0.24 -2.8,-1.71 -2.8,-1.71 L -2.8,-1.71 Z"></path></g><g transform="translate(239 142) rotate(0 20.00000000000003 10.5)" stroke="none"><path fill="#1e1e1e" d="M -2.8,-1.71 Q -2.8,-1.71 -2.77,-0.27 -2.74,-0.54 -2.66,-0.80 -2.58,-1.07 -2.45,-1.31 -2.32,-1.55 -2.15,-1.76 -1.97,-1.97 -1.76,-2.15 -1.55,-2.32 -1.31,-2.45 -1.07,-2.58 -0.80,-2.66 -0.54,-2.74 -0.27,-2.77 3.42,-2.8 0.27,-2.77 0.54,-2.74 0.80,-2.66 1.07,-2.58 1.31,-2.45 1.55,-2.32 1.76,-2.15 1.97,-1.97 2.15,-1.76 2.32,-1.55 2.45,-1.31 2.58,-1.07 2.66,-0.80 2.74,-0.54 2.77,-0.27 2.8,1.71 2.8,1 2.8,2 2.79,3.16 2.79,4.33 3.02,6.29 3.25,8.25 3.57,9.60 3.89,10.95 4.66,12.65 5.43,14.35 6.93,15.87 8.44,17.39 10.63,19.14 12.82,20.89 15.25,22.20 17.68,23.51 19.97,24.15 22.26,24.79 24.24,24.88 26.22,24.98 28.34,24.58 30.46,24.19 32.06,23.61 33.66,23.04 34.25,22.52 34.84,22.00 35.33,21.06 35.82,20.11 35.89,18.61 35.96,17.11 35.57,15.15 35.17,13.18 34.27,10.52 33.37,7.86 31.96,5.31 30.54,2.75 29.33,0.71 28.11,-1.32 27.36,-2.45 26.60,-3.59 26.33,-3.91 26.06,-4.22 26.16,-4.15 26.26,-4.08 25.66,-4.16 25.05,-4.23 24.80,-4.34 24.54,-4.44 24.31,-4.59 24.08,-4.74 23.89,-4.93 23.69,-5.12 23.54,-5.35 23.38,-5.57 23.27,-5.83 23.17,-6.08 23.11,-6.35 23.05,-6.62 23.05,-6.89 23.05,-7.17 23.10,-7.44 23.15,-7.71 23.25,-7.96 23.35,-8.21 23.50,-8.44 23.65,-8.67 23.85,-8.87 24.04,-9.07 24.27,-9.22 24.49,-9.38 24.74,-9.48 25.00,-9.59 25.27,-9.65 25.53,-9.70 25.81,-9.71 26.08,-9.71 26.35,-9.66 26.62,-9.61 26.88,-9.51 27.13,-9.40 27.36,-9.25 27.59,-9.10 27.79,-8.91 27.98,-8.72 28.14,-8.49 28.29,-8.27 28.40,-8.01 28.51,-7.76 28.56,-7.49 28.62,-7.23 28.62,-6.95 28.63,-6.68 28.58,-6.41 28.53,-6.14 28.42,-5.88 28.32,-5.63 28.17,-5.40 28.02,-5.17 27.83,-4.97 27.64,-4.78 27.41,-4.62 27.18,-4.47 26.93,-4.36 26.68,-4.25 26.41,-4.19 26.14,-4.14 25.87,-4.13 25.59,-4.13 25.32,-4.18 25.05,-4.23 24.80,-4.34 24.54,-4.44 24.31,-4.59 24.08,-4.74 23.89,-4.93 23.69,-5.12 23.54,-5.35 23.38,-5.57 23.27,-5.83 23.17,-6.08 23.11,-6.35 23.05,-6.62 23.05,-6.89 23.05,-7.17 23.10,-7.44 23.15,-7.71 23.25,-7.96 23.35,-8.21 23.50,-8.44 23.65,-8.67 23.85,-8.87 24.04,-9.07 24.27,-9.22 24.49,-9.38 24.74,-9.48 25.00,-9.59 25.27,-9.65 25.53,-9.70 25.81,-9.71 26.08,-9.71 26.59,-9.66 27.10,-9.62 27.89,-9.40 28.67,-9.18 29.77,-8.19 30.87,-7.21 31.86,-5.76 32.85,-4.31 34.12,-2.17 35.39,-0.02 36.95,2.78 38.50,5.60 39.54,8.67 40.58,11.74 41.07,14.24 41.55,16.74 41.39,19.17 41.22,21.60 40.24,23.52 39.26,25.44 37.90,26.64 36.54,27.84 34.24,28.71 31.94,29.58 29.27,30.08 26.59,30.57 23.98,30.44 21.37,30.32 18.48,29.51 15.59,28.71 12.66,27.14 9.73,25.57 7.21,23.55 4.68,21.54 2.74,19.53 0.81,17.52 -0.28,15.15 -1.39,12.79 -1.82,11.01 -2.25,9.24 -2.52,6.95 -2.79,4.66 -2.79,3.33 -2.8,2 -2.8,0.99 -2.8,-1.71 -2.8,-1.71 L -2.8,-1.71 Z"></path></g><g transform="translate(275.00000000000006 131) rotate(0 14.5 1.5)" stroke="none"><path fill="#1e1e1e" d="M -2.8,-1.71 Q -2.8,-1.71 -2.77,-0.27 -2.74,-0.54 -2.66,-0.80 -2.58,-1.07 -2.45,-1.31 -2.32,-1.55 -2.15,-1.76 -1.97,-1.97 -1.76,-2.15 -1.55,-2.32 -1.31,-2.45 -1.07,-2.58 -0.80,-2.66 -0.54,-2.74 -0.27,-2.77 3.42,-2.8 0.27,-2.77 0.54,-2.74 0.80,-2.66 1.07,-2.58 1.31,-2.45 1.55,-2.32 1.76,-2.15 1.97,-1.97 2.15,-1.76 2.32,-1.55 2.45,-1.31 2.58,-1.07 2.66,-0.80 2.74,-0.54 2.77,-0.27 2.8,1.71 2.8,0.50 2.8,1 2.77,1.48 2.74,1.97 2.88,2.24 3.01,2.51 3.48,3.33 3.95,4.14 5.10,5.25 6.25,6.36 7.78,7.65 9.31,8.93 10.72,9.78 12.14,10.63 12.98,11.01 13.82,11.40 14.47,11.56 15.13,11.73 16.10,11.61 17.06,11.49 18.49,11.22 19.92,10.95 21.28,10.37 22.64,9.80 23.43,9.36 24.22,8.93 24.65,8.53 25.07,8.12 25.25,7.61 25.43,7.10 25.17,6.00 24.92,4.89 24.39,3.42 23.87,1.95 22.65,0.47 21.43,-1.00 20.33,-2.49 19.23,-3.99 18.48,-4.70 17.72,-5.40 17.14,-5.97 16.56,-6.54 15.77,-7.07 14.99,-7.60 14.42,-8.07 13.86,-8.54 13.19,-8.87 12.52,-9.19 12.31,-9.37 12.11,-9.56 11.94,-9.77 11.78,-9.99 11.66,-10.24 11.54,-10.49 11.47,-10.75 11.40,-11.02 11.38,-11.29 11.36,-11.57 11.40,-11.84 11.44,-12.11 11.53,-12.37 11.62,-12.63 11.76,-12.86 11.89,-13.10 12.08,-13.31 12.26,-13.51 12.48,-13.68 12.70,-13.84 12.94,-13.96 13.19,-14.08 13.45,-14.15 13.72,-14.22 13.99,-14.24 14.27,-14.26 14.54,-14.22 14.81,-14.18 15.07,-14.09 15.33,-14.00 15.57,-13.87 15.80,-13.73 16.01,-13.54 16.21,-13.36 16.38,-13.14 16.55,-12.93 16.67,-12.68 16.79,-12.43 16.86,-12.17 16.93,-11.90 16.94,-11.63 16.96,-11.35 16.92,-11.08 16.89,-10.81 16.80,-10.55 16.71,-10.29 16.57,-10.05 16.43,-9.82 16.25,-9.61 16.07,-9.41 15.85,-9.24 15.63,-9.07 15.38,-8.95 15.13,-8.83 14.87,-8.76 14.60,-8.69 14.33,-8.68 14.06,-8.66 13.78,-8.70 13.51,-8.74 13.25,-8.83 12.99,-8.91 12.76,-9.05 12.52,-9.19 12.31,-9.37 12.11,-9.56 11.94,-9.77 11.78,-9.99 11.66,-10.24 11.54,-10.49 11.47,-10.75 11.40,-11.02 11.38,-11.29 11.36,-11.57 11.40,-11.84 11.44,-12.11 11.53,-12.37 11.62,-12.63 11.76,-12.86 11.89,-13.10 12.08,-13.31 12.26,-13.51 12.48,-13.68 12.70,-13.84 12.94,-13.96 13.19,-14.08 13.45,-14.15 13.72,-14.22 13.99,-14.24 14.27,-14.26 14.54,-14.22 14.81,-14.18 15.07,-14.09 15.33,-14.00 16.07,-13.65 16.80,-13.31 17.57,-12.70 18.33,-12.10 19.21,-11.49 20.10,-10.88 20.84,-10.16 21.59,-9.45 22.50,-8.58 23.42,-7.71 24.64,-6.07 25.86,-4.42 27.30,-2.61 28.74,-0.80 29.52,1.29 30.31,3.39 30.67,5.43 31.02,7.47 30.44,9.25 29.85,11.03 28.75,12.20 27.64,13.37 26.37,14.10 25.09,14.83 23.32,15.57 21.55,16.31 19.72,16.67 17.89,17.03 16.34,17.17 14.78,17.32 13.40,17.01 12.02,16.70 10.78,16.14 9.54,15.58 7.80,14.54 6.06,13.49 4.27,12.00 2.49,10.51 1.02,9.05 -0.45,7.60 -1.23,6.29 -2.01,4.98 -2.38,4.00 -2.74,3.02 -2.77,2.01 -2.8,1 -2.8,0.49 -2.8,-1.71 -2.8,-1.71 L -2.8,-1.71 Z"></path></g><g transform="translate(278.00000000000006 105) rotate(0 37 -47.5)" stroke="none"><path fill="#1e1e1e" d="M -1.71,2.8 Q -1.71,2.8 -0.27,2.77 -0.54,2.74 -0.80,2.66 -1.07,2.58 -1.31,2.45 -1.55,2.32 -1.76,2.15 -1.97,1.97 -2.15,1.76 -2.32,1.55 -2.45,1.31 -2.58,1.07 -2.66,0.80 -2.74,0.54 -2.77,0.27 -2.8,-3.42 -2.77,-0.27 -2.74,-0.54 -2.66,-0.80 -2.58,-1.07 -2.45,-1.31 -2.32,-1.55 -2.15,-1.76 -1.97,-1.97 -1.76,-2.15 -1.55,-2.32 -1.31,-2.45 -1.07,-2.58 -0.80,-2.66 -0.54,-2.74 -0.27,-2.77 1.71,-2.8 0.50,-2.8 1,-2.8 2,-2.8 3,-2.8 5,-2.8 7,-2.8 10.25,-2.8 13.5,-2.8 17.03,-2.79 20.57,-2.79 24.52,-3.28 28.47,-3.77 32.86,-4.49 37.25,-5.21 41.77,-6.75 46.30,-8.29 50.38,-10.67 54.46,-13.04 57.36,-16.24 60.25,-19.43 62.21,-24.17 64.17,-28.91 65.92,-34.74 67.66,-40.58 68.54,-46.69 69.42,-52.80 69.86,-58.12 70.30,-63.43 70.53,-67.59 70.75,-71.74 70.87,-74.87 70.99,-78.00 70.35,-80.41 69.71,-82.82 68.89,-85.07 68.07,-87.32 67.48,-88.82 66.88,-90.32 66.25,-91.26 65.61,-92.19 65.52,-92.45 65.44,-92.71 65.40,-92.99 65.37,-93.26 65.39,-93.53 65.41,-93.81 65.48,-94.07 65.56,-94.34 65.68,-94.58 65.80,-94.83 65.97,-95.04 66.14,-95.26 66.35,-95.44 66.56,-95.62 66.80,-95.75 67.04,-95.89 67.30,-95.97 67.56,-96.06 67.83,-96.09 68.10,-96.13 68.37,-96.11 68.65,-96.09 68.91,-96.01 69.18,-95.94 69.42,-95.82 69.67,-95.69 69.88,-95.52 70.10,-95.35 70.28,-95.15 70.46,-94.94 70.59,-94.70 70.73,-94.46 70.81,-94.20 70.90,-93.94 70.93,-93.67 70.97,-93.39 70.95,-93.12 70.93,-92.85 70.85,-92.58 70.78,-92.32 70.66,-92.07 70.53,-91.83 70.36,-91.61 70.20,-91.40 69.99,-91.22 69.78,-91.04 69.54,-90.90 69.30,-90.77 69.04,-90.68 68.78,-90.59 68.51,-90.56 68.24,-90.53 67.96,-90.55 67.69,-90.57 67.42,-90.64 67.16,-90.72 66.91,-90.84 66.67,-90.96 66.45,-91.13 66.24,-91.30 66.06,-91.51 65.88,-91.72 65.74,-91.95 65.61,-92.19 65.52,-92.45 65.44,-92.71 65.40,-92.99 65.37,-93.26 65.39,-93.53 65.41,-93.81 65.48,-94.07 65.56,-94.34 65.68,-94.58 65.80,-94.83 65.97,-95.04 66.14,-95.26 66.35,-95.44 66.56,-95.62 66.80,-95.75 67.04,-95.89 67.30,-95.97 67.56,-96.06 67.83,-96.09 68.10,-96.13 68.37,-96.11 68.65,-96.09 68.91,-96.01 69.18,-95.94 69.42,-95.82 69.67,-95.69 69.88,-95.52 70.10,-95.35 70.28,-95.15 70.46,-94.94 71.13,-93.97 71.80,-93.00 72.55,-91.16 73.30,-89.32 74.18,-86.90 75.06,-84.48 75.81,-81.55 76.55,-78.61 76.45,-75.06 76.34,-71.50 76.12,-67.27 75.89,-63.05 75.43,-57.61 74.98,-52.17 74.06,-45.77 73.13,-39.38 71.29,-33.20 69.44,-27.02 67.21,-21.73 64.98,-16.43 61.49,-12.56 58.00,-8.70 53.31,-5.95 48.63,-3.20 43.62,-1.49 38.62,0.21 33.94,0.99 29.27,1.77 25.09,2.28 20.92,2.79 17.21,2.79 13.5,2.8 10.25,2.8 7,2.8 5,2.8 3,2.8 2,2.8 1,2.8 0.49,2.8 -1.71,2.8 -1.71,2.8 L -1.71,2.8 Z"></path></g></svg>