<?xml version="1.0" standalone="no"?>
<!DOCTYPE svg PUBLIC "-//W3C//DTD SVG 1.1//EN" "http://www.w3.org/Graphics/SVG/1.1/DTD/svg11.dtd">
<svg version="1.1" xmlns="http://www.w3.org/2000/svg" viewBox="0 0 266 315" width="266" height="315"><!-- svg-source:excalidraw --><metadata></metadata><defs><style class="style-fonts">
      </style></defs><g transform="translate(38 135) rotate(0 100.5 71)" stroke="none"><path fill="#1e1e1e" d="M -2.8,-1.71 Q -2.8,-1.71 -2.77,-0.27 -2.74,-0.54 -2.66,-0.80 -2.58,-1.07 -2.45,-1.31 -2.32,-1.55 -2.15,-1.76 -1.97,-1.97 -1.76,-2.15 -1.55,-2.32 -1.31,-2.45 -1.07,-2.58 -0.80,-2.66 -0.54,-2.74 -0.27,-2.77 3.42,-2.8 0.27,-2.77 0.54,-2.74 0.80,-2.66 1.07,-2.58 1.31,-2.45 1.55,-2.32 1.76,-2.15 1.97,-1.97 2.15,-1.76 2.32,-1.55 2.45,-1.31 2.58,-1.07 2.66,-0.80 2.74,-0.54 2.77,-0.27 2.8,1.71 2.79,0.16 2.79,0.33 3.03,2.34 3.27,4.35 3.88,8.11 4.50,11.87 5.56,17.25 6.61,22.63 7.90,28.87 9.19,35.10 9.84,39.56 10.50,44.01 11.57,63.74 12.65,83.47 13.43,95.06 14.22,106.64 14.61,112.90 15.00,119.17 15.45,123.31 15.89,127.44 16.12,130.30 16.34,133.16 16.46,135.09 16.57,137.03 16.62,138.25 16.68,139.47 16.71,140.34 16.74,141.21 16.75,141.91 16.77,142.60 16.77,143.20 16.78,143.80 16.78,144.60 16.79,145.40 16.79,146.55 16.79,147.70 16.79,149.02 16.79,150.35 16.79,151.76 16.79,153.17 16.79,154.13 16.79,155.08 16.79,156.06 16.79,157.04 16.79,158.28 16.79,159.52 16.79,160.89 16.79,162.26 16.79,163.44 16.79,164.63 16.79,165.72 16.79,166.81 16.74,167.22 16.69,167.63 16.45,167.31 16.21,166.99 16.04,166.89 15.87,166.80 17.38,166.42 18.88,166.04 22.37,165.58 25.87,165.11 30.86,164.63 35.85,164.16 42.07,163.67 48.30,163.18 56.17,162.44 64.04,161.69 72.74,161.07 81.45,160.44 91.07,159.88 100.69,159.32 110.52,159.04 120.34,158.76 128.50,158.62 136.66,158.48 143.49,158.41 150.32,158.34 156.49,158.30 162.66,158.27 167.29,158.25 171.93,158.23 175.27,158.48 178.61,158.72 180.48,158.84 182.36,158.96 183.53,159.02 184.70,159.08 186.02,159.11 187.35,159.14 188.51,159.15 189.67,159.16 191.75,159.17 193.83,159.18 195.12,159.18 196.41,159.19 197.31,159.19 198.21,159.19 198.48,159.26 198.75,159.33 198.24,159.85 197.73,160.36 197.61,160.75 197.49,161.13 196.54,159.52 195.59,157.92 194.01,154.63 192.43,151.33 191.10,147.04 189.78,142.75 189.13,137.86 188.48,132.97 187.67,127.85 186.86,122.72 185.95,116.90 185.04,111.08 184.09,105.15 183.13,99.22 182.40,93.50 181.67,87.78 180.81,81.64 179.94,75.50 179.50,69.37 179.06,63.25 178.85,57.47 178.63,51.70 178.28,46.64 177.93,41.57 177.26,37.06 176.58,32.54 176.00,28.53 175.41,24.52 174.88,21.55 174.34,18.59 173.82,16.32 173.29,14.05 173.02,12.35 172.74,10.65 172.61,9.51 172.47,8.38 172.40,7.30 172.33,6.21 172.30,5.41 172.26,4.61 172.24,3.71 172.23,2.80 172.22,1.85 172.21,0.89 172.21,-0.21 172.21,-1.33 171.97,-2.89 171.72,-4.44 171.59,-6.08 171.45,-7.71 171.40,-9.15 171.34,-10.58 171.07,-11.80 170.79,-13.02 170.64,-14.51 170.49,-16.01 170.41,-17.25 170.34,-18.49 170.30,-19.61 170.27,-20.74 170.25,-22.05 170.23,-23.37 170.25,-24.80 170.26,-26.22 170.34,-26.49 170.42,-26.75 170.55,-26.99 170.67,-27.23 170.85,-27.45 171.02,-27.66 171.23,-27.84 171.44,-28.01 171.68,-28.14 171.92,-28.28 172.18,-28.36 172.45,-28.44 172.72,-28.47 172.99,-28.50 173.26,-28.47 173.54,-28.45 173.80,-28.37 174.06,-28.29 174.31,-28.16 174.55,-28.04 174.76,-27.86 174.98,-27.69 175.15,-27.48 175.33,-27.27 175.46,-27.03 175.59,-26.79 175.67,-26.53 175.75,-26.26 175.78,-25.99 175.81,-25.72 175.79,-25.45 175.76,-25.17 175.69,-24.91 175.61,-24.65 175.48,-24.40 175.35,-24.16 175.18,-23.95 175.01,-23.73 174.80,-23.56 174.59,-23.38 174.34,-23.25 174.10,-23.12 173.84,-23.04 173.58,-22.96 173.31,-22.93 173.03,-22.90 172.76,-22.92 172.49,-22.95 172.22,-23.02 171.96,-23.10 171.72,-23.23 171.47,-23.36 171.26,-23.53 171.05,-23.70 170.87,-23.91 170.70,-24.12 170.57,-24.36 170.43,-24.61 170.35,-24.87 170.27,-25.13 170.24,-25.40 170.21,-25.68 170.24,-25.95 170.26,-26.22 170.34,-26.49 170.42,-26.75 170.55,-26.99 170.67,-27.23 170.85,-27.45 171.02,-27.66 171.23,-27.84 171.44,-28.01 171.68,-28.14 171.92,-28.28 172.18,-28.36 172.45,-28.44 172.72,-28.47 172.99,-28.50 173.26,-28.47 173.54,-28.45 173.80,-28.37 174.06,-28.29 174.31,-28.16 174.55,-28.04 174.76,-27.86 174.98,-27.69 175.15,-27.48 175.33,-27.27 175.46,-27.03 175.59,-26.79 175.67,-26.53 175.75,-26.26 175.78,-25.99 175.81,-25.72 175.82,-24.57 175.83,-23.43 175.85,-22.15 175.86,-20.87 175.90,-19.80 175.93,-18.74 176.00,-17.60 176.07,-16.46 176.19,-15.19 176.32,-13.91 176.61,-12.61 176.90,-11.30 176.97,-9.68 177.04,-8.06 177.16,-6.58 177.28,-5.10 177.54,-3.44 177.79,-1.78 177.80,-0.45 177.81,0.86 177.82,1.79 177.83,2.72 177.84,3.58 177.86,4.44 177.89,5.18 177.92,5.91 177.98,6.89 178.04,7.87 178.17,8.86 178.29,9.86 178.54,11.42 178.79,12.97 179.31,15.22 179.83,17.47 180.38,20.54 180.94,23.61 181.53,27.67 182.12,31.72 182.81,36.35 183.49,40.97 183.86,46.18 184.22,51.40 184.44,57.17 184.65,62.95 185.08,68.93 185.51,74.90 186.36,80.97 187.22,87.03 187.95,92.73 188.67,98.42 189.62,104.31 190.58,110.20 191.48,116.03 192.39,121.85 193.21,127.01 194.03,132.17 194.64,136.86 195.25,141.55 196.44,145.42 197.64,149.28 199.09,152.30 200.55,155.32 201.68,157.34 202.80,159.36 202.83,160.99 202.86,162.62 201.65,163.64 200.45,164.66 199.32,164.73 198.20,164.79 197.30,164.79 196.40,164.79 195.11,164.78 193.81,164.78 191.72,164.77 189.62,164.76 188.44,164.75 187.25,164.73 185.87,164.70 184.50,164.67 183.27,164.61 182.05,164.55 180.13,164.43 178.22,164.31 174.98,164.07 171.74,163.83 167.21,163.85 162.68,163.87 156.53,163.90 150.37,163.94 143.55,164.01 136.74,164.08 128.60,164.22 120.47,164.36 110.70,164.63 100.94,164.91 91.37,165.47 81.81,166.03 73.16,166.65 64.50,167.27 56.64,168.02 48.78,168.76 42.56,169.25 36.33,169.73 31.42,170.21 26.50,170.68 23.18,171.12 19.86,171.55 17.74,171.97 15.62,172.39 14.20,171.90 12.78,171.41 12.04,170.29 11.30,169.18 11.25,167.99 11.19,166.81 11.19,165.72 11.19,164.63 11.19,163.44 11.19,162.26 11.19,160.89 11.19,159.52 11.19,158.28 11.19,157.04 11.19,156.06 11.19,155.08 11.19,154.13 11.19,153.17 11.19,151.76 11.19,150.35 11.19,149.03 11.19,147.70 11.19,146.56 11.19,145.42 11.18,144.63 11.18,143.84 11.17,143.26 11.17,142.69 11.15,142.03 11.14,141.36 11.11,140.53 11.09,139.69 11.03,138.51 10.98,137.32 10.87,135.43 10.76,133.54 10.53,130.75 10.31,127.96 9.87,123.80 9.42,119.64 9.03,113.32 8.63,107.00 7.85,95.41 7.06,83.81 5.99,64.19 4.93,44.57 4.30,40.32 3.68,36.08 2.40,29.91 1.13,23.74 0.06,18.30 -1.00,12.87 -1.63,9.00 -2.27,5.14 -2.53,2.90 -2.79,0.66 -2.79,0.33 -2.8,-1.71 -2.8,-1.71 L -2.8,-1.71 Z"></path></g><g transform="translate(10 160) rotate(0 123 -75)" stroke="none"><path fill="#1e1e1e" d="M 2.8,1.71 Q 2.8,1.71 2.77,0.27 2.74,0.54 2.66,0.80 2.58,1.07 2.45,1.31 2.32,1.55 2.15,1.76 1.97,1.97 1.76,2.15 1.55,2.32 1.31,2.45 1.07,2.58 0.80,2.66 0.54,2.74 0.27,2.77 -3.42,2.8 -0.27,2.77 -0.54,2.74 -0.80,2.66 -1.07,2.58 -1.31,2.45 -1.55,2.32 -1.76,2.15 -1.97,1.97 -2.15,1.76 -2.32,1.55 -2.45,1.31 -2.58,1.07 -2.66,0.80 -2.74,0.54 -2.77,0.27 -2.8,-1.71 -2.59,-0.98 -2.38,-1.97 -1.94,-2.33 -1.51,-2.69 -1.35,-3.22 -1.19,-3.74 -0.16,-5.28 0.85,-6.82 2.58,-9.04 4.31,-11.26 6.66,-14.60 9.01,-17.94 11.93,-21.85 14.85,-25.76 17.79,-30.19 20.74,-34.63 23.98,-39.37 27.21,-44.11 30.31,-48.69 33.41,-53.28 36.22,-57.84 39.03,-62.40 41.93,-66.68 44.84,-70.96 47.52,-75.32 50.21,-79.69 52.80,-83.86 55.39,-88.04 57.42,-91.61 59.46,-95.19 61.48,-98.72 63.50,-102.26 65.27,-105.54 67.04,-108.83 68.94,-112.01 70.85,-115.19 72.78,-118.24 74.71,-121.30 76.42,-124.31 78.13,-127.32 79.75,-130.11 81.37,-132.90 82.63,-134.95 83.89,-137.00 84.59,-138.64 85.28,-140.29 86.14,-141.38 87.01,-142.47 87.30,-143.02 87.59,-143.56 87.82,-144.24 88.04,-144.91 88.52,-145.70 89.00,-146.48 89.50,-147.11 90.01,-147.74 90.37,-148.12 90.73,-148.49 90.80,-148.69 90.88,-148.88 91.13,-149.67 91.38,-150.46 92.77,-151.37 94.15,-152.28 95.53,-151.77 96.91,-151.26 98.04,-150.80 99.16,-150.34 101.11,-149.02 103.07,-147.70 105.49,-145.81 107.91,-143.93 111.13,-141.49 114.34,-139.05 117.96,-136.06 121.59,-133.08 125.11,-130.12 128.63,-127.16 132.68,-124.14 136.73,-121.13 140.29,-117.85 143.85,-114.56 147.11,-111.69 150.36,-108.81 153.27,-106.11 156.17,-103.40 158.90,-100.77 161.62,-98.13 163.76,-95.79 165.91,-93.44 167.98,-91.02 170.04,-88.59 172.06,-86.16 174.07,-83.72 176.07,-81.51 178.07,-79.30 180.34,-76.66 182.62,-74.03 184.73,-71.49 186.84,-68.95 189.40,-66.19 191.95,-63.42 194.48,-60.54 197.00,-57.65 199.77,-54.71 202.53,-51.77 205.14,-48.82 207.75,-45.87 210.58,-43.12 213.41,-40.37 215.83,-37.50 218.24,-34.63 220.40,-32.49 222.56,-30.35 224.70,-28.22 226.84,-26.09 228.41,-24.27 229.98,-22.45 231.44,-20.88 232.90,-19.30 234.32,-18.05 235.75,-16.81 237.31,-15.60 238.86,-14.39 240.11,-13.07 241.36,-11.74 242.18,-11.12 242.99,-10.51 243.73,-9.89 244.47,-9.26 244.93,-8.83 245.39,-8.39 246.00,-8.07 246.61,-7.76 246.81,-7.57 247.01,-7.38 247.17,-7.16 247.33,-6.93 247.44,-6.68 247.55,-6.43 247.62,-6.17 247.68,-5.90 247.69,-5.62 247.69,-5.35 247.65,-5.08 247.60,-4.81 247.51,-4.55 247.41,-4.29 247.27,-4.06 247.12,-3.83 246.93,-3.63 246.74,-3.43 246.52,-3.27 246.30,-3.11 246.05,-3.00 245.80,-2.88 245.53,-2.82 245.26,-2.76 244.99,-2.75 244.71,-2.74 244.44,-2.79 244.17,-2.83 243.92,-2.93 243.66,-3.03 243.43,-3.17 243.19,-3.32 242.99,-3.51 242.79,-3.69 242.63,-3.92 242.47,-4.14 242.36,-4.39 242.25,-4.64 242.19,-4.91 242.12,-5.17 242.12,-5.45 242.11,-5.72 242.15,-5.99 242.20,-6.26 242.29,-6.52 242.39,-6.78 242.54,-7.01 242.68,-7.24 242.87,-7.44 243.06,-7.64 243.28,-7.80 243.50,-7.96 243.75,-8.08 244.00,-8.19 244.27,-8.25 244.54,-8.31 244.81,-8.32 245.09,-8.33 245.36,-8.29 245.63,-8.24 245.89,-8.14 246.14,-8.05 246.38,-7.90 246.61,-7.76 246.81,-7.57 247.01,-7.38 247.17,-7.16 247.33,-6.93 247.44,-6.68 247.55,-6.43 247.62,-6.17 247.68,-5.90 247.69,-5.62 247.69,-5.35 247.65,-5.08 247.60,-4.81 247.51,-4.55 247.41,-4.29 247.27,-4.06 247.12,-3.83 246.93,-3.63 246.74,-3.43 246.52,-3.27 246.30,-3.11 246.05,-3.00 245.80,-2.88 245.53,-2.82 245.26,-2.76 244.99,-2.75 244.71,-2.74 244.44,-2.79 244.17,-2.83 243.92,-2.93 243.66,-3.03 242.94,-3.40 242.23,-3.77 241.50,-4.41 240.77,-5.06 240.13,-5.60 239.49,-6.14 238.55,-6.86 237.62,-7.58 236.36,-8.91 235.10,-10.24 233.65,-11.36 232.19,-12.48 230.59,-13.88 228.99,-15.28 227.40,-17.00 225.81,-18.72 224.27,-20.50 222.74,-22.27 220.68,-24.32 218.61,-26.38 216.37,-28.61 214.12,-30.83 211.72,-33.70 209.31,-36.56 206.51,-39.28 203.70,-42.01 201.05,-45.00 198.39,-48.00 195.63,-50.94 192.86,-53.89 190.32,-56.79 187.79,-59.68 185.21,-62.47 182.63,-65.26 180.49,-67.84 178.35,-70.41 176.11,-73.00 173.87,-75.59 171.85,-77.83 169.83,-80.06 167.79,-82.53 165.76,-84.99 163.73,-87.36 161.71,-89.74 159.66,-91.98 157.61,-94.23 154.96,-96.78 152.31,-99.34 149.46,-102.00 146.60,-104.67 143.35,-107.54 140.09,-110.41 136.63,-113.62 133.16,-116.82 129.16,-119.79 125.16,-122.76 121.58,-125.77 118.01,-128.77 114.44,-131.72 110.86,-134.66 107.68,-137.08 104.50,-139.49 102.14,-141.33 99.77,-143.17 98.14,-144.28 96.52,-145.40 95.49,-145.81 94.46,-146.22 94.54,-146.46 94.61,-146.70 95.38,-147.11 96.14,-147.51 96.16,-147.30 96.18,-147.08 95.80,-146.25 95.41,-145.43 94.84,-144.77 94.28,-144.12 93.93,-143.68 93.57,-143.24 93.35,-142.89 93.12,-142.54 92.93,-141.95 92.74,-141.36 92.21,-140.37 91.68,-139.38 90.89,-138.41 90.10,-137.43 89.49,-135.95 88.88,-134.46 87.53,-132.24 86.18,-130.03 84.58,-127.28 82.98,-124.53 81.25,-121.48 79.52,-118.42 77.57,-115.34 75.62,-112.25 73.76,-109.16 71.90,-106.06 70.15,-102.80 68.39,-99.54 66.36,-95.98 64.33,-92.41 62.26,-88.79 60.20,-85.17 57.59,-80.96 54.97,-76.74 52.26,-72.33 49.54,-67.92 46.63,-63.64 43.73,-59.36 40.92,-54.80 38.12,-50.25 34.98,-45.60 31.85,-40.96 28.62,-36.23 25.39,-31.50 22.41,-27.02 19.42,-22.53 16.48,-18.59 13.54,-14.65 11.18,-11.28 8.81,-7.92 7.10,-5.73 5.39,-3.54 4.54,-2.27 3.69,-1.00 3.10,0.09 2.51,1.19 2.44,1.08 2.38,0.97 2.59,0.48 2.8,1.71 2.8,1.71 L 2.8,1.71 Z"></path></g><g transform="translate(115 289) rotate(0 26.5 -49)" stroke="none"><path fill="#1e1e1e" d="M 2.8,1.71 Q 2.8,1.71 2.77,0.27 2.74,0.54 2.66,0.80 2.58,1.07 2.45,1.31 2.32,1.55 2.15,1.76 1.97,1.97 1.76,2.15 1.55,2.32 1.31,2.45 1.07,2.58 0.80,2.66 0.54,2.74 0.27,2.77 -3.42,2.8 -0.27,2.77 -0.54,2.74 -0.80,2.66 -1.07,2.58 -1.31,2.45 -1.55,2.32 -1.76,2.15 -1.97,1.97 -2.15,1.76 -2.32,1.55 -2.45,1.31 -2.58,1.07 -2.66,0.80 -2.74,0.54 -2.77,0.27 -2.8,-1.71 -2.8,-0.25 -2.8,-0.5 -2.79,-0.99 -2.78,-1.48 -3.02,-2.68 -3.25,-3.87 -3.64,-6.10 -4.02,-8.33 -4.21,-10.69 -4.40,-13.05 -4.74,-15.62 -5.07,-18.19 -5.74,-21.29 -6.42,-24.39 -6.77,-27.79 -7.11,-31.20 -7.29,-34.39 -7.46,-37.59 -7.54,-40.64 -7.62,-43.70 -7.91,-47.22 -8.21,-50.75 -8.35,-54.31 -8.50,-57.87 -8.58,-61.40 -8.65,-64.93 -8.69,-68.70 -8.72,-72.47 -8.74,-76.04 -8.76,-79.60 -9.01,-82.38 -9.27,-85.16 -9.40,-87.35 -9.53,-89.54 -9.59,-91.01 -9.64,-92.48 -9.94,-93.91 -10.23,-95.35 -9.87,-96.82 -9.51,-98.30 -8.37,-99.11 -7.22,-99.92 -6.38,-100.17 -5.54,-100.43 -3.66,-100.53 -1.78,-100.62 0.36,-100.14 2.52,-99.66 5.51,-99.19 8.50,-98.71 11.99,-97.97 15.48,-97.23 19.67,-96.62 23.86,-96.01 28.47,-95.45 33.08,-94.89 37.37,-94.37 41.65,-93.84 45.01,-93.58 48.37,-93.32 50.56,-93.19 52.74,-93.06 54.07,-92.99 55.40,-92.93 56.84,-92.86 58.27,-92.79 59.59,-92.10 60.90,-91.40 61.52,-89.87 62.15,-88.33 62.32,-86.44 62.50,-84.55 62.57,-82.45 62.64,-80.36 62.93,-77.06 63.22,-73.77 63.36,-70.33 63.51,-66.88 63.58,-63.16 63.65,-59.44 63.69,-55.83 63.72,-52.22 63.74,-49.16 63.76,-46.11 63.77,-43.33 63.78,-40.55 63.78,-38.41 63.79,-36.27 63.79,-33.45 63.79,-30.63 63.79,-28.97 63.79,-27.32 63.79,-25.49 63.79,-23.66 63.79,-22.49 63.79,-21.33 63.79,-20.49 63.79,-19.66 63.79,-18.99 63.79,-18.33 63.79,-17.74 63.79,-17.16 63.77,-16.35 63.74,-15.53 63.66,-15.27 63.58,-15.01 63.45,-14.76 63.32,-14.52 63.15,-14.31 62.97,-14.10 62.76,-13.92 62.55,-13.75 62.31,-13.62 62.07,-13.49 61.80,-13.41 61.54,-13.33 61.27,-13.31 61.00,-13.28 60.72,-13.30 60.45,-13.33 60.19,-13.41 59.92,-13.49 59.68,-13.62 59.44,-13.75 59.23,-13.92 59.02,-14.10 58.84,-14.31 58.67,-14.52 58.54,-14.76 58.41,-15.01 58.33,-15.27 58.25,-15.53 58.22,-15.80 58.19,-16.08 58.22,-16.35 58.25,-16.62 58.33,-16.89 58.41,-17.15 58.54,-17.39 58.67,-17.63 58.84,-17.85 59.02,-18.06 59.23,-18.23 59.44,-18.41 59.68,-18.54 59.92,-18.66 60.19,-18.74 60.45,-18.82 60.72,-18.85 60.99,-18.88 61.27,-18.85 61.54,-18.82 61.80,-18.74 62.07,-18.67 62.31,-18.54 62.55,-18.41 62.76,-18.23 62.97,-18.06 63.15,-17.85 63.32,-17.63 63.45,-17.39 63.58,-17.15 63.66,-16.89 63.74,-16.62 63.77,-16.35 63.79,-16.08 63.77,-15.81 63.74,-15.53 63.66,-15.27 63.58,-15.01 63.45,-14.76 63.32,-14.52 63.15,-14.31 62.97,-14.10 62.76,-13.92 62.55,-13.75 62.31,-13.62 62.07,-13.49 61.80,-13.41 61.54,-13.33 61.27,-13.31 61.00,-13.28 60.72,-13.30 60.45,-13.33 60.19,-13.41 59.92,-13.49 59.68,-13.62 59.44,-13.75 59.23,-13.92 59.02,-14.10 58.84,-14.31 58.67,-14.52 58.54,-14.76 58.41,-15.01 58.33,-15.27 58.25,-15.53 58.22,-15.80 58.19,-16.08 58.19,-16.62 58.19,-17.16 58.19,-17.74 58.19,-18.33 58.19,-18.99 58.19,-19.66 58.19,-20.49 58.19,-21.32 58.19,-22.49 58.19,-23.65 58.19,-25.48 58.19,-27.31 58.19,-28.97 58.19,-30.63 58.19,-33.45 58.19,-36.27 58.18,-38.40 58.18,-40.54 58.17,-43.31 58.16,-46.08 58.14,-49.13 58.12,-52.17 58.09,-55.76 58.05,-59.35 57.98,-63.03 57.91,-66.71 57.77,-70.06 57.63,-73.41 57.34,-76.71 57.05,-80.02 56.98,-82.11 56.91,-84.21 56.79,-85.70 56.67,-87.19 56.70,-87.42 56.74,-87.65 56.88,-87.49 57.01,-87.33 56.10,-87.33 55.18,-87.33 53.81,-87.40 52.44,-87.46 50.21,-87.60 47.99,-87.73 44.54,-88.00 41.09,-88.27 36.75,-88.80 32.41,-89.34 27.76,-89.90 23.12,-90.46 18.81,-91.09 14.50,-91.72 10.99,-92.46 7.48,-93.20 4.46,-93.68 1.45,-94.17 -0.40,-94.60 -2.26,-95.04 -3.41,-94.98 -4.56,-94.92 -4.77,-94.85 -4.98,-94.78 -4.95,-94.95 -4.91,-95.11 -4.77,-95.30 -4.63,-95.48 -4.36,-94.34 -4.09,-93.20 -4.01,-91.51 -3.94,-89.82 -3.81,-87.70 -3.68,-85.58 -3.42,-82.73 -3.16,-79.88 -3.14,-76.19 -3.12,-72.51 -3.09,-68.76 -3.05,-65.02 -2.98,-61.53 -2.90,-58.05 -2.76,-54.57 -2.62,-51.10 -2.32,-47.55 -2.03,-44.00 -1.95,-40.91 -1.86,-37.82 -1.70,-34.72 -1.53,-31.63 -1.21,-28.45 -0.89,-25.27 -0.22,-22.21 0.44,-19.14 0.80,-16.39 1.15,-13.63 1.34,-11.33 1.52,-9.04 1.89,-6.95 2.25,-4.87 2.52,-3.44 2.78,-2.01 2.79,-1.25 2.8,-0.5 2.8,-0.24 2.8,1.71 2.8,1.71 L 2.8,1.71 Z"></path></g></svg>